<svg width="15" height="15" viewBox="0 0 15 15" fill="none" xmlns="http://www.w3.org/2000/svg">
<g clip-path="url(#clip0_1244_7456)">
<path d="M14.2822 4.29194C13.6699 2.99409 12.7002 1.90424 11.4785 1.13959C9.77929 0.0790467 7.7666 -0.257867 5.81543 0.193304C3.86425 0.641547 2.20312 1.82514 1.14257 3.52436C0.0790977 5.22358 -0.257816 7.23334 0.193355 9.18744C0.644527 11.1386 1.82812 12.7997 3.52441 13.8603C4.71972 14.6074 6.09082 15.0029 7.49414 15.0029H7.58496C8.98242 14.9853 10.3418 14.581 11.5195 13.8369C11.8623 13.6201 11.9619 13.1689 11.7451 12.8261C11.5283 12.4833 11.0771 12.3837 10.7344 12.6005C9.78808 13.2011 8.69238 13.5263 7.56738 13.541C6.41308 13.5556 5.28515 13.2363 4.30078 12.624C2.93261 11.7685 1.98046 10.4326 1.62011 8.86225C1.25976 7.29194 1.52929 5.67475 2.38476 4.30659C4.14843 1.4853 7.88086 0.623969 10.7021 2.38764C11.6865 3.00287 12.4658 3.87885 12.958 4.92182C13.4385 5.93842 13.626 7.06635 13.5 8.17963C13.4561 8.581 13.7432 8.94428 14.1475 8.98823C14.5488 9.03217 14.9121 8.74506 14.9561 8.34077C15.1113 6.95502 14.8769 5.55463 14.2822 4.29194Z" fill="white"/>
<path d="M9.92285 4.95679L6.38965 8.48999L5.08008 7.18042C4.79297 6.89331 4.33008 6.89331 4.04297 7.18042C3.75586 7.46753 3.75586 7.93042 4.04297 8.21753L5.87109 10.0457C6.01465 10.1892 6.20215 10.2595 6.38965 10.2595C6.57715 10.2595 6.76465 10.1892 6.9082 10.0457L10.957 5.9939C11.2441 5.70679 11.2441 5.2439 10.957 4.95679C10.6699 4.67261 10.207 4.67261 9.92285 4.95679Z" fill="white"/>
</g>
<defs>
<clipPath id="clip0_1244_7456">
<rect width="15" height="15" fill="white"/>
</clipPath>
</defs>
</svg>
