<svg width="18" height="18" viewBox="0 0 18 18" fill="none" xmlns="http://www.w3.org/2000/svg">
<g clip-path="url(#clip0_1359_15913)">
<path fill-rule="evenodd" clip-rule="evenodd" d="M9 0C4.03594 0 0 4.03594 0 9C0 13.9641 4.03594 18 9 18C13.9641 18 18 13.9641 18 9C18 4.03594 13.9641 0 9 0Z" fill="#4BAE4F"/>
<path d="M7.2668 13.117C6.11719 11.9674 4.97461 10.8072 3.82148 9.65762C3.69492 9.53106 3.69492 9.32012 3.82148 9.19356L5.14687 7.86816C5.27344 7.7416 5.48438 7.7416 5.61094 7.86816L7.50586 9.76309L12.3785 4.88691C12.5086 4.76035 12.716 4.76035 12.8461 4.88691L14.175 6.21582C14.3051 6.3459 14.3051 6.55332 14.175 6.67988L7.73086 13.117C7.6043 13.2471 7.39687 13.2471 7.2668 13.117Z" fill="white"/>
</g>
<defs>
<clipPath id="clip0_1359_15913">
<rect width="18" height="18" fill="white"/>
</clipPath>
</defs>
</svg>
