<svg width="20" height="20" viewBox="0 0 20 20" fill="none" xmlns="http://www.w3.org/2000/svg">
<g clip-path="url(#clip0_1480_7943)">
<path fill-rule="evenodd" clip-rule="evenodd" d="M9.96109 0C4.46693 0 0 4.48438 0 10C0 15.5156 4.46693 20 9.96109 20C15.4553 20 19.9222 15.5156 19.9222 10C19.9222 4.48438 15.4553 0 9.96109 0Z" fill="#4BAE4F"/>
<path d="M8.34954 13.9073C7.26185 12.8154 6.18082 11.7135 5.08981 10.6215C4.97006 10.5013 4.97006 10.3009 5.08981 10.1807L6.34381 8.92184C6.46355 8.80163 6.66313 8.80163 6.78287 8.92184L8.57572 10.7217L13.1859 6.09016C13.309 5.96995 13.5052 5.96995 13.6283 6.09016L14.8856 7.35239C15.0087 7.47595 15.0087 7.67296 14.8856 7.79318L8.7886 13.9073C8.66886 14.0309 8.47261 14.0309 8.34954 13.9073Z" fill="white"/>
</g>
<defs>
<clipPath id="clip0_1480_7943">
<rect width="19.9222" height="20" fill="white"/>
</clipPath>
</defs>
</svg>
