<svg width="12" height="15" viewBox="0 0 12 15" fill="none" xmlns="http://www.w3.org/2000/svg">
<path d="M10.1247 10.2613L5.99984 14.1666L1.87502 10.2613C1.05923 9.48893 0.503662 8.50485 0.278587 7.43353C0.0535126 6.3622 0.169036 5.25175 0.610549 4.24258C1.05206 3.23342 1.79974 2.37087 2.75902 1.76401C3.7183 1.15716 4.84612 0.833252 5.99984 0.833252C7.15356 0.833252 8.28137 1.15716 9.24065 1.76401C10.1999 2.37087 10.9476 3.23342 11.3891 4.24258C11.8306 5.25175 11.9462 6.3622 11.7211 7.43353C11.496 8.50485 10.9404 9.48893 10.1247 10.2613ZM5.99984 7.58335C6.34364 7.58335 6.67335 7.45405 6.91646 7.22388C7.15956 6.99372 7.29613 6.68155 7.29613 6.35605C7.29613 6.03055 7.15956 5.71838 6.91646 5.48822C6.67335 5.25806 6.34364 5.12875 5.99984 5.12875C5.65604 5.12875 5.32632 5.25806 5.08322 5.48822C4.84012 5.71838 4.70354 6.03055 4.70354 6.35605C4.70354 6.68155 4.84012 6.99372 5.08322 7.22388C5.32632 7.45405 5.65604 7.58335 5.99984 7.58335Z" fill="#39BCC0"/>
</svg>
