<svg width="43" height="45" viewBox="0 0 43 45" fill="none" xmlns="http://www.w3.org/2000/svg">
<path d="M26.5219 31.1794C26.4059 29.6041 26.3733 28.0237 26.4244 26.445L26.4225 26.5144C27.8334 25.0517 28.7134 23.1584 28.9219 21.1369L28.9256 21.0975C29.5613 21.045 30.5644 20.4263 30.8569 17.9738C30.9452 17.5514 30.9119 17.1126 30.7609 16.7084C30.6099 16.3042 30.3473 15.9511 30.0038 15.69L29.9981 15.6862C31.0331 12.5737 33.1819 2.94375 26.0213 1.95C25.2844 0.65625 23.3981 0 20.9456 0C11.1337 0.18 9.95062 7.40812 12.0956 15.6862C11.7493 15.9497 11.4851 16.3063 11.334 16.7144C11.1829 17.1225 11.1512 17.5652 11.2425 17.9906L11.2406 17.9756C11.5406 20.4244 12.5363 21.0469 13.1719 21.0994C13.3948 23.1434 14.3028 25.0519 15.7481 26.5144C15.7957 28.1208 15.7594 29.7286 15.6394 31.3312L15.6487 31.1794C13.7025 36.3994 0.6 34.9331 0 45H42.1088C41.505 34.9331 28.4625 36.3994 26.52 31.1794H26.5219Z" fill="#699BF7"/>
</svg>
