<svg width="25" height="26" viewBox="0 0 25 26" fill="none" xmlns="http://www.w3.org/2000/svg">
<path d="M11.0417 17.6875L18.3854 10.3437L16.9271 8.88542L11.0417 14.7708L8.07292 11.8021L6.61458 13.2604L11.0417 17.6875ZM5.20833 22.6875C4.63542 22.6875 4.14479 22.4837 3.73646 22.076C3.32882 21.6677 3.125 21.1771 3.125 20.6042V6.02083C3.125 5.44792 3.32882 4.95729 3.73646 4.54896C4.14479 4.14132 4.63542 3.9375 5.20833 3.9375H19.7917C20.3646 3.9375 20.8552 4.14132 21.2635 4.54896C21.6712 4.95729 21.875 5.44792 21.875 6.02083V20.6042C21.875 21.1771 21.6712 21.6677 21.2635 22.076C20.8552 22.4837 20.3646 22.6875 19.7917 22.6875H5.20833ZM5.20833 20.6042H19.7917V6.02083H5.20833V20.6042ZM5.20833 6.02083V20.6042V6.02083Z" fill="#70F76A"/>
</svg>
