<svg width="24" height="24" viewBox="0 0 24 24" fill="none" xmlns="http://www.w3.org/2000/svg">
<g clip-path="url(#clip0_164_8860)">
<path d="M6.375 11.3437C2.88567 11.3437 0.046875 14.1825 0.046875 17.6718C0.046875 21.1611 2.88567 23.9999 6.375 23.9999C9.86433 23.9999 12.7031 21.1611 12.7031 17.6718C12.7031 14.1825 9.86433 11.3437 6.375 11.3437ZM7.07813 20.953C7.07813 21.3414 6.76331 21.6562 6.375 21.6562C5.98669 21.6562 5.67188 21.3414 5.67188 20.953V16.7343C5.67188 16.346 5.98669 16.0312 6.375 16.0312C6.76331 16.0312 7.07813 16.346 7.07813 16.7343V20.953ZM6.375 15.0937C5.98669 15.0937 5.67188 14.7789 5.67188 14.3905C5.67188 14.0022 5.98669 13.6874 6.375 13.6874C6.76331 13.6874 7.07813 14.0022 7.07813 14.3905C7.07813 14.7789 6.76331 15.0937 6.375 15.0937ZM19.2656 0.411621V4.68742H23.5411L19.2656 0.411621Z" fill="white"/>
<path d="M18.5625 6.09375C18.1742 6.09375 17.8594 5.77894 17.8594 5.39062V0H7.78125C6.61814 0 5.67188 0.946266 5.67188 2.10938V9.9698C5.90353 9.9488 6.13795 9.9375 6.375 9.9375C8.77162 9.9375 10.917 11.0332 12.3368 12.75H19.9688C20.3571 12.75 20.6719 13.0648 20.6719 13.4531C20.6719 13.8414 20.3571 14.1562 19.9688 14.1562H13.2632C13.7124 15.0328 13.9888 15.9877 14.0771 16.9688H19.9688C20.3571 16.9688 20.6719 17.2836 20.6719 17.6719C20.6719 18.0602 20.3571 18.375 19.9688 18.375H14.0771C13.8668 20.6971 12.6261 22.7262 10.8168 24H21.8438C23.0069 24 23.9531 23.0537 23.9531 21.8906V6.09375H18.5625ZM19.9688 9.9375H9.65625C9.26794 9.9375 8.95312 9.62269 8.95312 9.23438C8.95312 8.84606 9.26794 8.53125 9.65625 8.53125H19.9688C20.3571 8.53125 20.6719 8.84606 20.6719 9.23438C20.6719 9.62269 20.3571 9.9375 19.9688 9.9375Z" fill="white"/>
</g>
<defs>
<clipPath id="clip0_164_8860">
<rect width="24" height="24" fill="white"/>
</clipPath>
</defs>
</svg>
