<svg width="17" height="17" viewBox="0 0 17 17" fill="none" xmlns="http://www.w3.org/2000/svg">
<path d="M5.53801 1.49918L5.53795 1.49921L8.49598 16L8.49579 16.1C8.49583 16.1 8.49587 16.1 8.49592 16.1C9.5121 16.1019 10.5182 15.8987 11.454 15.5026C13.311 14.7181 14.7802 13.2281 15.5386 11.3603C16.2969 9.49247 16.2822 7.39991 15.4977 5.54294C14.7132 3.68596 13.2232 2.21669 11.3554 1.45834C9.48755 0.699985 7.39499 0.714676 5.53801 1.49918ZM1.67375 8.50091C1.67375 4.73917 4.73425 1.67868 8.49598 1.67868C12.2577 1.67868 15.3182 4.73917 15.3182 8.50091C15.3182 12.2626 12.2577 15.3231 8.49598 15.3231C4.73425 15.3231 1.67375 12.2626 1.67375 8.50091Z" fill="white" stroke="white" stroke-width="0.2"/>
<path d="M10.7137 12.6463L10.7135 12.646L8.49592 10.4274L6.27818 12.646L6.27817 12.646L6.20744 12.5753C6.15338 12.6294 6.08004 12.6598 6.00356 12.6599L10.7137 12.6463ZM10.7137 12.6463C10.7867 12.7188 10.8855 12.7594 10.9884 12.7591M10.7137 12.6463L8.49592 6.57521M8.49592 6.57521L6.27817 4.35658L6.27816 4.35657C6.24209 4.32049 6.19927 4.29188 6.15214 4.27235C6.105 4.25282 6.05449 4.24277 6.00347 4.24277C5.95245 4.24277 5.90194 4.25282 5.85481 4.27235C5.80767 4.29188 5.76485 4.32049 5.72878 4.35657M8.49592 6.57521L5.72878 4.35657M8.49592 6.57521L10.7135 4.35658L10.7135 4.35657C10.7496 4.32049 10.7924 4.29188 10.8395 4.27235C10.8867 4.25282 10.9372 4.24277 10.9882 4.24277C11.0392 4.24277 11.0897 4.25282 11.1369 4.27235C11.184 4.29187 11.2268 4.32049 11.2629 4.35656C11.2629 4.35656 11.2629 4.35657 11.2629 4.35657L12.6406 5.73416C12.6767 5.77022 12.7053 5.81305 12.7249 5.86018C12.7444 5.90731 12.7544 5.95783 12.7544 6.00884C12.7544 6.05986 12.7444 6.11037 12.7249 6.15751C12.7053 6.20464 12.6767 6.24746 12.6406 6.28353L12.6406 6.28354L10.422 8.50131L12.6407 10.72L12.6407 10.72C12.7135 10.7928 12.7544 10.8916 12.7544 10.9946C12.7544 11.0975 12.7135 11.1963 12.6407 11.2691L12.6406 11.2692L11.2629 12.646L11.2627 12.6463C11.1898 12.7187 11.0911 12.7593 10.9884 12.7591M5.72878 4.35657L5.72879 4.35656L5.79949 4.42726L5.72878 4.35657ZM10.9884 12.7591C10.9883 12.7591 10.9882 12.7591 10.9881 12.7591L10.9883 12.6591L10.9886 12.7591C10.9885 12.7591 10.9884 12.7591 10.9884 12.7591ZM4.3512 5.73415L4.35119 5.73416L4.42189 5.80486L4.3512 5.73415ZM10.9883 11.821L8.77143 9.60323L8.77139 9.60319C8.69856 9.5304 8.5998 9.48952 8.49682 9.48952C8.39385 9.48952 8.29509 9.5304 8.22226 9.60319L8.22225 9.6032L6.00357 11.821L5.17624 10.9937L7.39381 8.7768L7.39384 8.77676C7.46663 8.70393 7.50752 8.60517 7.50752 8.5022C7.50752 8.39922 7.46663 8.30046 7.39384 8.22763L7.39384 8.22762L5.17621 6.00895L6.00357 5.18159L8.22134 7.39884L8.22135 7.39886C8.29419 7.47164 8.39295 7.51253 8.49592 7.51253C8.5989 7.51253 8.69766 7.47164 8.77049 7.39886L8.77051 7.39884L10.9883 5.18159L11.8156 6.00894L9.5982 8.22671L9.59818 8.22673C9.52539 8.29956 9.48451 8.39832 9.48451 8.5013C9.48451 8.60427 9.52539 8.70303 9.59818 8.77586L9.5982 8.77588L11.8156 10.9937L10.9883 11.821Z" fill="white" stroke="white" stroke-width="0.2"/>
</svg>
