<svg width="25" height="26" viewBox="0 0 25 26" fill="none" xmlns="http://www.w3.org/2000/svg">
<path d="M8.75004 18.646L12.5 14.896L16.25 18.646L17.7084 17.1877L13.9584 13.4377L17.7084 9.68766L16.25 8.22933L12.5 11.9793L8.75004 8.22933L7.29171 9.68766L11.0417 13.4377L7.29171 17.1877L8.75004 18.646ZM12.5 23.8543C11.0591 23.8543 9.7049 23.5807 8.43754 23.0335C7.17018 22.487 6.06775 21.745 5.13025 20.8075C4.19275 19.87 3.45074 18.7675 2.90421 17.5002C2.35699 16.2328 2.08337 14.8786 2.08337 13.4377C2.08337 11.9967 2.35699 10.6425 2.90421 9.37516C3.45074 8.1078 4.19275 7.00537 5.13025 6.06787C6.06775 5.13037 7.17018 4.38801 8.43754 3.84079C9.7049 3.29426 11.0591 3.021 12.5 3.021C13.941 3.021 15.2952 3.29426 16.5625 3.84079C17.8299 4.38801 18.9323 5.13037 19.8698 6.06787C20.8073 7.00537 21.5493 8.1078 22.0959 9.37516C22.6431 10.6425 22.9167 11.9967 22.9167 13.4377C22.9167 14.8786 22.6431 16.2328 22.0959 17.5002C21.5493 18.7675 20.8073 19.87 19.8698 20.8075C18.9323 21.745 17.8299 22.487 16.5625 23.0335C15.2952 23.5807 13.941 23.8543 12.5 23.8543ZM12.5 21.771C14.8264 21.771 16.7969 20.9637 18.4115 19.3491C20.0261 17.7345 20.8334 15.7641 20.8334 13.4377C20.8334 11.1113 20.0261 9.14079 18.4115 7.5262C16.7969 5.91162 14.8264 5.10433 12.5 5.10433C10.1737 5.10433 8.20317 5.91162 6.58858 7.5262C4.974 9.14079 4.16671 11.1113 4.16671 13.4377C4.16671 15.7641 4.974 17.7345 6.58858 19.3491C8.20317 20.9637 10.1737 21.771 12.5 21.771Z" fill="#FF6060"/>
</svg>
