<svg width="20" height="21" viewBox="0 0 20 21" fill="none" xmlns="http://www.w3.org/2000/svg">
<path fill-rule="evenodd" clip-rule="evenodd" d="M8.88896 18.2776C8.88896 18.8664 9.12344 19.4322 9.54001 19.8487C9.95661 20.2653 10.5223 20.4998 11.1112 20.4998H17.7776C18.3665 20.4998 18.9322 20.2653 19.3488 19.8487C19.7654 19.4322 19.9998 18.8664 19.9998 18.2776V13.8331C19.9998 13.2443 19.7654 12.6785 19.3488 12.262C18.9322 11.8454 18.3665 11.6109 17.7776 11.6109H11.1112C10.5223 11.6109 9.95659 11.8454 9.54001 12.262C9.12341 12.6786 8.88896 13.2443 8.88896 13.8331V18.2776ZM4.44445 11.6111H2.2222C1.63314 11.6111 1.06763 11.8456 0.651051 12.2622C0.234231 12.6788 0 13.2445 0 13.8333V18.2778C0 18.8666 0.234259 19.4324 0.651051 19.849C1.06765 20.2656 1.63314 20.5 2.2222 20.5H4.44445C5.03328 20.5 5.5988 20.2655 6.0156 19.849C6.4322 19.4324 6.66665 18.8666 6.66665 18.2778V13.8333C6.66665 13.2445 6.43217 12.6788 6.0156 12.2622C5.59878 11.8456 5.03328 11.6111 4.44445 11.6111V11.6111ZM19.9999 2.72218C19.9999 2.13313 19.7655 1.56762 19.3489 1.15105C18.9323 0.734229 18.3666 0.5 17.7777 0.5H2.22225C1.6332 0.5 1.06768 0.734257 0.651107 1.15105C0.234287 1.56764 5.67082e-05 2.13313 5.67082e-05 2.72218V7.16667C5.67082e-05 7.75549 0.234315 8.321 0.651107 8.73781C1.06771 9.1544 1.6332 9.38885 2.22225 9.38885H17.7777C19.0056 9.38885 20 8.39443 20 7.16661L19.9999 2.72218Z" fill="#1E3A8A"/>
</svg>
