<svg width="16" height="16" viewBox="0 0 16 16" fill="none" xmlns="http://www.w3.org/2000/svg">
<rect width="16" height="16" rx="8" fill="#F15858"/>
<g clip-path="url(#clip0_2_3945)">
<path d="M9.66675 6.00008H11.3334V6.66675H10.6667V11.0001C10.6667 11.0885 10.6316 11.1733 10.5691 11.2358C10.5066 11.2983 10.4218 11.3334 10.3334 11.3334H5.66675C5.57834 11.3334 5.49356 11.2983 5.43105 11.2358C5.36853 11.1733 5.33341 11.0885 5.33341 11.0001V6.66675H4.66675V6.00008H6.33341V5.00008C6.33341 4.91168 6.36853 4.82689 6.43105 4.76438C6.49356 4.70187 6.57834 4.66675 6.66675 4.66675H9.33341C9.42182 4.66675 9.5066 4.70187 9.56912 4.76438C9.63163 4.82689 9.66675 4.91168 9.66675 5.00008V6.00008ZM10.0001 6.66675H6.00008V10.6667H10.0001V6.66675ZM7.00008 7.66675H7.66675V9.66675H7.00008V7.66675ZM8.33341 7.66675H9.00008V9.66675H8.33341V7.66675ZM7.00008 5.33341V6.00008H9.00008V5.33341H7.00008Z" fill="white"/>
</g>
<defs>
<clipPath id="clip0_2_3945">
<rect width="8" height="8" fill="white" transform="translate(4 4)"/>
</clipPath>
</defs>
</svg>
