<svg width="47" height="48" viewBox="0 0 47 48" fill="none" xmlns="http://www.w3.org/2000/svg">
<path d="M23.3337 48C36.2206 48 46.6675 37.2548 46.6675 24C46.6675 10.7452 36.2206 0 23.3337 0C10.4469 0 0 10.7452 0 24C0 37.2548 10.4469 48 23.3337 48Z" fill="#E3EEF9"/>
<g clip-path="url(#clip0_164_10266)">
<path d="M34.3444 13.4639C34.3444 12.7131 34.0514 12.0064 33.5204 11.4754L30.869 8.824C30.3454 8.30031 29.602 8 28.8623 8H28.7012V13.625H34.3444L34.3444 13.4639Z" fill="#1E3A8A"/>
<path d="M27.1211 27.3461C27.3005 26.8013 27.6136 26.2941 28.0219 25.8831L34.3696 19.561V15.5H27.7821C27.2639 15.5 26.875 15.0807 26.875 14.5625V8H12.8125C11.2616 8 10 9.26163 10 10.8125V37.1875C10 38.7384 11.2616 40 12.8125 40H31.5321C33.0829 40 34.3696 38.7384 34.3696 37.1875V30.1906L33.3393 31.1958C32.9219 31.6096 32.433 31.9108 31.8818 32.0949L28.9009 33.0901L28.4468 33.1148C27.696 33.1148 26.9856 32.7495 26.5443 32.1379C26.1067 31.5291 25.9877 30.7399 26.2257 30.0268L27.1211 27.3461ZM14.6875 24.875H24.0321C24.5503 24.875 24.9696 25.2943 24.9696 25.8125C24.9696 26.3307 24.5503 26.75 24.0321 26.75H14.6875C14.1693 26.75 13.75 26.3307 13.75 25.8125C13.75 25.2943 14.1693 24.875 14.6875 24.875ZM13.75 22.0625C13.75 21.5443 14.1693 21.125 14.6875 21.125H24.0321C24.5503 21.125 24.9696 21.5443 24.9696 22.0625C24.9696 22.5807 24.5503 23 24.0321 23H14.6875C14.1693 23 13.75 22.5807 13.75 22.0625ZM13.75 29.5625C13.75 29.0443 14.1693 28.625 14.6875 28.625H24.0321C24.5503 28.625 24.9696 29.0443 24.9696 29.5625C24.9696 30.0807 24.5503 30.5 24.0321 30.5H14.6875C14.1693 30.5 13.75 30.0807 13.75 29.5625ZM27.7821 34.25C28.3003 34.25 28.7196 34.6693 28.7196 35.1875C28.7196 35.7057 28.3003 36.125 27.7821 36.125H22.1571C21.6389 36.125 21.2196 35.7057 21.2196 35.1875C21.2196 34.6693 21.6389 34.25 22.1571 34.25H27.7821ZM14.6875 19.25C14.1693 19.25 13.75 18.8307 13.75 18.3125C13.75 17.7943 14.1693 17.375 14.6875 17.375H27.7821C28.3003 17.375 28.7196 17.7943 28.7196 18.3125C28.7196 18.8307 28.3003 19.25 27.7821 19.25H14.6875Z" fill="#1E3A8A"/>
<path d="M28.819 28.1753L28.0034 30.6222C27.8812 30.9888 28.23 31.3375 28.5965 31.215L31.042 30.3983L28.819 28.1753ZM36.1002 20.4565L29.9258 26.6308L32.5887 29.2936C33.9842 27.8978 36.6995 25.1821 38.7627 23.119L36.1002 20.4565ZM41.4487 17.7675C41.1191 17.4361 40.6338 17.2466 40.1193 17.2466C39.6047 17.2466 39.1195 17.4361 38.7881 17.7685L37.4258 19.1308L40.0882 21.7931L41.4506 20.4307C42.1829 19.6973 42.1828 18.5026 41.4487 17.7675Z" fill="#1E3A8A"/>
<path d="M41.4512 20.431L41.4513 20.4309L41.4567 20.4255C41.4549 20.4274 41.453 20.4292 41.4512 20.431ZM41.465 20.4172C41.4712 20.411 41.471 20.4111 41.465 20.4172Z" fill="#1E3A8A"/>
</g>
<defs>
<clipPath id="clip0_164_10266">
<rect width="32" height="32" fill="white" transform="translate(10 8)"/>
</clipPath>
</defs>
</svg>
