<svg width="47" height="48" viewBox="0 0 47 48" fill="none" xmlns="http://www.w3.org/2000/svg">
<path d="M23.3337 48C36.2206 48 46.6675 37.2548 46.6675 24C46.6675 10.7452 36.2206 0 23.3337 0C10.4469 0 0 10.7452 0 24C0 37.2548 10.4469 48 23.3337 48Z" fill="#FFE5C6"/>
<path d="M18.447 28.1049L14.447 26.1049C14.3082 26.0356 14.1552 25.9995 14 25.9995C13.8448 25.9995 13.6918 26.0356 13.553 26.1049L9.553 28.1049C9.518 28.1229 9.491 28.1489 9.459 28.1699L14 30.4399L18.541 28.1699C18.509 28.1499 18.482 28.1229 18.447 28.1049ZM9 33.9999C8.99991 34.1857 9.05161 34.3679 9.14929 34.526C9.24697 34.684 9.38677 34.8118 9.553 34.8949L13.5 36.9999V31.3099L9 29.0599V33.9999ZM14.5 36.9999L18.447 34.8949C18.6132 34.8118 18.753 34.684 18.8507 34.526C18.9484 34.3679 19.0001 34.1857 19 33.9999V29.0599L14.5 31.3099V36.9999ZM29.447 28.1049L25.447 26.1049C25.3082 26.0356 25.1552 25.9995 25 25.9995C24.8448 25.9995 24.6918 26.0356 24.553 26.1049L20.553 28.1049C20.518 28.1229 20.491 28.1489 20.459 28.1699L25 30.4399L29.541 28.1699C29.509 28.1499 29.482 28.1229 29.447 28.1049ZM20 33.9999C19.9999 34.1857 20.0516 34.3679 20.1493 34.526C20.247 34.684 20.3868 34.8118 20.553 34.8949L24.5 36.9999V31.3099L20 29.0599V33.9999ZM30 33.9999V29.0599L25.5 31.3099V36.9999L29.447 34.8949C29.6132 34.8118 29.753 34.684 29.8507 34.526C29.9484 34.3679 30.0001 34.1857 30 33.9999Z" fill="#FD8900"/>
<path d="M36 10H18C17.7348 10 17.4804 10.1054 17.2929 10.2929C17.1054 10.4804 17 10.7348 17 11V26.25L19.443 27.457C19.459 27.465 19.472 27.479 19.488 27.487C19.513 27.472 19.533 27.452 19.56 27.439L24.105 25.211C24.382 25.073 24.691 25 25 25C25.309 25 25.618 25.073 25.895 25.21L30.443 27.457C30.6101 27.5396 30.7509 27.6672 30.8493 27.8256C30.9477 27.9839 30.9999 28.1666 31 28.353V34C31 34.762 30.577 35.447 29.896 35.788L25.75 38H36C36.2652 38 36.5196 37.8946 36.7071 37.7071C36.8946 37.5196 37 37.2652 37 37V11C37 10.7348 36.8946 10.4804 36.7071 10.2929C36.5196 10.1054 36.2652 10 36 10ZM22.854 22.854L20.854 24.854C20.8077 24.9008 20.7526 24.938 20.6918 24.9633C20.631 24.9887 20.5658 25.0017 20.5 25.0017C20.4342 25.0017 20.369 24.9887 20.3082 24.9633C20.2474 24.938 20.1923 24.9008 20.146 24.854L19.146 23.854C19.0995 23.8075 19.0626 23.7523 19.0375 23.6916C19.0123 23.6308 18.9994 23.5657 18.9994 23.5C18.9994 23.4343 19.0123 23.3692 19.0375 23.3084C19.0626 23.2477 19.0995 23.1925 19.146 23.146C19.1925 23.0995 19.2477 23.0626 19.3084 23.0375C19.3692 23.0123 19.4343 22.9994 19.5 22.9994C19.5657 22.9994 19.6308 23.0123 19.6916 23.0375C19.7523 23.0626 19.8075 23.0995 19.854 23.146L20.5 23.793L22.146 22.146C22.1925 22.0995 22.2477 22.0626 22.3084 22.0375C22.3692 22.0123 22.4343 21.9994 22.5 21.9994C22.5657 21.9994 22.6308 22.0123 22.6916 22.0375C22.7523 22.0626 22.8075 22.0995 22.854 22.146C22.9005 22.1925 22.9374 22.2477 22.9625 22.3084C22.9877 22.3692 23.0006 22.4343 23.0006 22.5C23.0006 22.5657 22.9877 22.6308 22.9625 22.6916C22.9374 22.7523 22.9005 22.8075 22.854 22.854ZM22.854 17.854L20.854 19.854C20.8077 19.9008 20.7526 19.938 20.6918 19.9633C20.631 19.9887 20.5658 20.0017 20.5 20.0017C20.4342 20.0017 20.369 19.9887 20.3082 19.9633C20.2474 19.938 20.1923 19.9008 20.146 19.854L19.146 18.854C19.0995 18.8075 19.0626 18.7523 19.0375 18.6916C19.0123 18.6308 18.9994 18.5657 18.9994 18.5C18.9994 18.4343 19.0123 18.3692 19.0375 18.3084C19.0626 18.2477 19.0995 18.1925 19.146 18.146C19.1925 18.0995 19.2477 18.0626 19.3084 18.0375C19.3692 18.0123 19.4343 17.9994 19.5 17.9994C19.5657 17.9994 19.6308 18.0123 19.6916 18.0375C19.7523 18.0626 19.8075 18.0995 19.854 18.146L20.5 18.793L22.146 17.146C22.1925 17.0995 22.2477 17.0626 22.3084 17.0375C22.3692 17.0123 22.4343 16.9994 22.5 16.9994C22.5657 16.9994 22.6308 17.0123 22.6916 17.0375C22.7523 17.0626 22.8075 17.0995 22.854 17.146C22.9005 17.1925 22.9374 17.2477 22.9625 17.3084C22.9877 17.3692 23.0006 17.4343 23.0006 17.5C23.0006 17.5657 22.9877 17.6308 22.9625 17.6916C22.9374 17.7523 22.9005 17.8075 22.854 17.854ZM22.854 12.854L20.854 14.854C20.8077 14.9008 20.7526 14.938 20.6918 14.9633C20.631 14.9887 20.5658 15.0017 20.5 15.0017C20.4342 15.0017 20.369 14.9887 20.3082 14.9633C20.2474 14.938 20.1923 14.9008 20.146 14.854L19.146 13.854C19.0521 13.7601 18.9994 13.6328 18.9994 13.5C18.9994 13.3672 19.0521 13.2399 19.146 13.146C19.2399 13.0521 19.3672 12.9994 19.5 12.9994C19.6328 12.9994 19.7601 13.0521 19.854 13.146L20.5 13.793L22.146 12.146C22.1925 12.0995 22.2477 12.0626 22.3084 12.0375C22.3692 12.0123 22.4343 11.9994 22.5 11.9994C22.5657 11.9994 22.6308 12.0123 22.6916 12.0375C22.7523 12.0626 22.8075 12.0995 22.854 12.146C22.9005 12.1925 22.9374 12.2477 22.9625 12.3084C22.9877 12.3692 23.0006 12.4343 23.0006 12.5C23.0006 12.5657 22.9877 12.6308 22.9625 12.6916C22.9374 12.7523 22.9005 12.8075 22.854 12.854ZM32 18.5C33.654 18.5 35 19.846 35 21.5C34.9985 22.2077 34.7467 22.892 34.2892 23.4319C33.8316 23.9718 33.1979 24.3324 32.5 24.45V25.5C32.5 25.6326 32.4473 25.7598 32.3536 25.8536C32.2598 25.9473 32.1326 26 32 26C31.8674 26 31.7402 25.9473 31.6464 25.8536C31.5527 25.7598 31.5 25.6326 31.5 25.5V24.45C30.8021 24.3324 30.1684 23.9718 29.7108 23.4319C29.2533 22.892 29.0015 22.2077 29 21.5C29 21.3674 29.0527 21.2402 29.1464 21.1464C29.2402 21.0527 29.3674 21 29.5 21C29.6326 21 29.7598 21.0527 29.8536 21.1464C29.9473 21.2402 30 21.3674 30 21.5C30 22.603 30.897 23.5 32 23.5C33.103 23.5 34 22.603 34 21.5C34 20.397 33.103 19.5 32 19.5C30.346 19.5 29 18.154 29 16.5C29.0015 15.7923 29.2533 15.108 29.7108 14.5681C30.1684 14.0282 30.8021 13.6676 31.5 13.55V12.5C31.5 12.3674 31.5527 12.2402 31.6464 12.1464C31.7402 12.0527 31.8674 12 32 12C32.1326 12 32.2598 12.0527 32.3536 12.1464C32.4473 12.2402 32.5 12.3674 32.5 12.5V13.55C33.1979 13.6676 33.8316 14.0282 34.2892 14.5681C34.7467 15.108 34.9985 15.7923 35 16.5C35 16.6326 34.9473 16.7598 34.8536 16.8536C34.7598 16.9473 34.6326 17 34.5 17C34.3674 17 34.2402 16.9473 34.1464 16.8536C34.0527 16.7598 34 16.6326 34 16.5C34 15.397 33.103 14.5 32 14.5C30.897 14.5 30 15.397 30 16.5C30 17.603 30.897 18.5 32 18.5Z" fill="#FD8900"/>
</svg>
