<svg width="14" height="8" viewBox="0 0 14 8" fill="none" xmlns="http://www.w3.org/2000/svg">
<path d="M1.84674 0.203711C1.6268 0.203711 1.40686 0.284742 1.23322 0.45838C0.897521 0.794078 0.897521 1.34972 1.23322 1.68542L4.93744 5.38968C5.12266 5.57489 5.36575 5.6675 5.63199 5.64434C5.88666 5.62119 6.11818 5.48228 6.26866 5.26234L7.53043 3.36391L11.6398 7.47332C11.9755 7.80902 12.5312 7.80902 12.8669 7.47332C13.2026 7.13763 13.2026 6.58199 12.8669 6.24629L8.00504 1.38444C7.81982 1.19923 7.57673 1.10663 7.31049 1.12978C7.05582 1.15293 6.8243 1.29184 6.67382 1.51178L5.41205 3.41021L2.46026 0.45838C2.28662 0.284742 2.06668 0.203711 1.84674 0.203711Z" fill="#E53E3E"/>
<path d="M12.2634 3.67747C11.7888 3.67747 11.3952 4.07105 11.3952 4.54566V5.99263H9.94826C9.47366 5.99263 9.08008 6.38621 9.08008 6.86082C9.08008 7.33543 9.47366 7.729 9.94826 7.729H12.2634C12.738 7.729 13.1316 7.33543 13.1316 6.86082V4.54566C13.1316 4.07105 12.738 3.67747 12.2634 3.67747Z" fill="#E53E3E"/>
</svg>
