<svg width="21" height="12" viewBox="0 0 21 12" fill="none" xmlns="http://www.w3.org/2000/svg">
<path d="M10.3723 4.26636L17.7784 11.0001C17.9818 11.1855 18.2538 11.2875 18.5439 11.2875C18.834 11.2875 19.1059 11.1855 19.3096 11.0001L19.9582 10.4101C20.1623 10.2249 20.2747 9.97748 20.2747 9.71377C20.2747 9.45007 20.1623 9.20289 19.9582 9.01763L11.1407 1.00002C10.9363 0.814016 10.6632 0.712162 10.3728 0.712894C10.0812 0.712162 9.80838 0.81387 9.60382 1.00002L0.794796 9.01016C0.590718 9.19543 0.478377 9.4426 0.478377 9.70645C0.478377 9.97016 0.590718 10.2173 0.794796 10.4027L1.44341 10.9926C1.86557 11.3765 2.5528 11.3765 2.9748 10.9926L10.3723 4.26636Z" fill="black"/>
</svg>
