<svg width="18" height="18" viewBox="0 0 18 18" fill="none" xmlns="http://www.w3.org/2000/svg">
<g clip-path="url(#clip0_1201_3631)">
<path d="M12.2416 17.8641H2.62319C1.17693 17.8641 0 16.6872 0 15.2409V3.87368C0 2.42742 1.17693 1.25049 2.62319 1.25049H7.70347C8.18615 1.25049 8.57785 1.64223 8.57785 2.12487C8.57785 2.60752 8.18615 2.99926 7.7035 2.99926H2.62319C2.14139 2.99926 1.74881 3.39188 1.74881 3.87365V15.2409C1.74881 15.7236 2.14142 16.1153 2.62319 16.1153H12.2416C12.7243 16.1153 13.116 15.7235 13.116 15.2409V12.4952C13.116 12.0117 13.5069 11.6208 13.9904 11.6208C14.4739 11.6208 14.8648 12.0117 14.8648 12.4952V15.2409C14.8648 16.688 13.6879 17.8641 12.2416 17.8641Z" fill="white"/>
<path d="M16.404 1.75867C15.4378 0.793335 13.8726 0.793335 12.9064 1.75867L6.9954 7.66963C6.30111 8.36652 5.91113 9.30914 5.91113 10.2928V12.2515H7.86978C8.8535 12.2515 9.79609 11.8615 10.493 11.1672L16.4039 5.25625C17.3693 4.29007 17.3693 2.72488 16.404 1.75867Z" fill="white"/>
<path d="M7.86966 13.1261H5.91101C5.42832 13.1261 5.03662 12.7353 5.03662 12.2518V10.294C5.03662 9.07068 5.51231 7.91997 6.37622 7.05346L12.288 1.14155C13.5935 -0.16219 15.7174 -0.163947 17.0221 1.14155C17.0221 1.14155 17.0221 1.14155 17.0229 1.14155C18.3258 2.44617 18.3258 4.57008 17.0229 5.8747L11.1111 11.7865C10.2445 12.6505 9.09296 13.1261 7.86966 13.1261ZM6.78539 11.3773H7.86966C8.6269 11.3773 9.33954 11.0827 9.87552 10.5493L15.7856 4.6392C16.4082 4.01663 16.4082 3.00145 15.7856 2.378C15.163 1.75631 14.1487 1.75543 13.5244 2.378L7.61348 8.28805C7.0801 8.82319 6.78543 9.53582 6.78543 10.2931L6.78539 11.3773Z" fill="white"/>
<path d="M15.0134 6.6202L16.4037 5.22991C17.369 4.2637 17.369 2.69851 16.4037 1.7323C15.4375 0.766968 13.8723 0.766968 12.9061 1.7323L11.6382 2.99143" fill="#39BCC0"/>
<path d="M15.6313 7.2386L14.3949 6.00219L15.7852 4.61189C16.4078 3.98845 16.4078 2.97414 15.7843 2.3507C15.1627 1.72901 14.1483 1.72989 13.5231 2.35158L12.2544 3.61158L11.0215 2.37081L12.2894 1.11168C13.5949 -0.190302 15.7179 -0.189423 17.0216 1.11344C18.3254 2.41893 18.3254 4.54285 17.0225 5.84747L15.6313 7.2386Z" fill="white"/>
<path d="M15.0133 7.51228C14.7895 7.51228 14.5656 7.42661 14.3951 7.25607L10.8975 3.75846C10.5556 3.41657 10.5556 2.86393 10.8975 2.52204C11.2394 2.18015 11.7921 2.18015 12.1339 2.52204L15.6316 6.01965C15.9734 6.36154 15.9734 6.91418 15.6316 7.25607C15.4611 7.42661 15.2372 7.51228 15.0133 7.51228Z" fill="white"/>
</g>
<defs>
<clipPath id="clip0_1201_3631">
<rect width="18" height="18" fill="white"/>
</clipPath>
</defs>
</svg>
