<svg width="18" height="18" viewBox="0 0 18 18" fill="none" xmlns="http://www.w3.org/2000/svg">
<g clip-path="url(#clip0_2_4040)">
<path d="M15.15 0.800049H2.85005C1.71947 0.800049 0.800049 1.71947 0.800049 2.85005V15.15C0.800049 16.2806 1.71947 17.2 2.85005 17.2H15.15C16.2806 17.2 17.2 16.2806 17.2 15.15V2.85005C17.2 1.71947 16.2806 0.800049 15.15 0.800049Z" fill="#716D6D"/>
<path d="M15.1875 9H12.375V6.75C12.375 6.129 12.879 6.1875 13.5 6.1875H14.625V3.375H12.375C10.5109 3.375 9 4.88588 9 6.75V9H6.75V11.8125H9V17.2H12.375V11.8125H14.0625L15.1875 9Z" fill="#FAFAFA"/>
</g>
<defs>
<clipPath id="clip0_2_4040">
<rect width="18" height="18" fill="white"/>
</clipPath>
</defs>
</svg>
