<svg width="22" height="22" viewBox="0 0 22 22" fill="none" xmlns="http://www.w3.org/2000/svg">
<path d="M3.64724 2.75H18.3529C18.7262 2.75029 19.0914 2.85894 19.4042 3.06276C19.717 3.26657 19.9638 3.55679 20.1149 3.89819C20.2659 4.23959 20.3146 4.6175 20.2551 4.98604C20.1955 5.35458 20.0303 5.69792 19.7794 5.97437L13.4063 12.9834V19.5938C13.4062 19.723 13.3698 19.8496 13.3011 19.959C13.2324 20.0684 13.1342 20.1563 13.0179 20.2125C12.9249 20.2584 12.8225 20.2819 12.7188 20.2812C12.5625 20.2811 12.411 20.2278 12.2891 20.13L11.0001 19.0988L8.85161 17.38C8.77122 17.3156 8.70632 17.234 8.66169 17.1412C8.61707 17.0484 8.59387 16.9467 8.5938 16.8438V12.9834L2.22068 5.97437C1.9698 5.69792 1.80456 5.35458 1.74501 4.98604C1.68546 4.6175 1.73417 4.23959 1.88521 3.89819C2.03626 3.55679 2.28315 3.26657 2.59593 3.06276C2.90871 2.85894 3.27392 2.75029 3.64724 2.75Z" fill="white"/>
</svg>
