<svg width="24" height="24" viewBox="0 0 24 24" fill="none" xmlns="http://www.w3.org/2000/svg">
<g clip-path="url(#clip0_164_8868)">
<path d="M3.5625 11.25C4.12978 11.25 4.6432 11.0224 5.02256 10.6569L7.10395 11.6975C7.0935 11.7823 7.07812 11.8656 7.07812 11.9531C7.07812 13.1162 8.02444 14.0625 9.1875 14.0625C10.3506 14.0625 11.2969 13.1162 11.2969 11.9531C11.2969 11.6285 11.217 11.3245 11.0854 11.0495L13.9089 8.226C14.1839 8.35767 14.4878 8.4375 14.8125 8.4375C15.9756 8.4375 16.9219 7.49119 16.9219 6.32812C16.9219 6.10913 16.8788 5.90203 16.8166 5.70337L19.2698 3.86391C19.6045 4.0875 20.0058 4.21875 20.4375 4.21875C21.6006 4.21875 22.5469 3.27244 22.5469 2.10938C22.5469 0.946312 21.6006 0 20.4375 0C19.2744 0 18.3281 0.946312 18.3281 2.10938C18.3281 2.32838 18.3712 2.53547 18.4334 2.73412L15.9802 4.57359C15.6455 4.35 15.2442 4.21875 14.8125 4.21875C13.6494 4.21875 12.7031 5.16506 12.7031 6.32812C12.7031 6.65278 12.783 6.95672 12.9146 7.23173L10.0911 10.0553C9.81609 9.92358 9.51216 9.84375 9.1875 9.84375C8.62022 9.84375 8.1068 10.0713 7.72744 10.4368L5.64605 9.39623C5.6565 9.31148 5.67188 9.22814 5.67188 9.14062C5.67188 7.97752 4.72561 7.03125 3.5625 7.03125C2.39939 7.03125 1.45312 7.97756 1.45312 9.14062C1.45312 10.3037 2.39944 11.25 3.5625 11.25Z" fill="white"/>
<path d="M23.2969 22.5938H22.5469V7.73438C22.5469 7.34578 22.2323 7.03125 21.8438 7.03125H19.0312C18.6427 7.03125 18.3281 7.34578 18.3281 7.73438V22.5938H16.9219V11.9531C16.9219 11.5645 16.6073 11.25 16.2188 11.25H13.4062C13.0177 11.25 12.7031 11.5645 12.7031 11.9531V22.5938H11.2969V17.5781C11.2969 17.1895 10.9823 16.875 10.5938 16.875H7.78125C7.39266 16.875 7.07812 17.1895 7.07812 17.5781V22.5938H5.67188V14.7656C5.67188 14.377 5.35734 14.0625 4.96875 14.0625H2.15625C1.76766 14.0625 1.45312 14.377 1.45312 14.7656V22.5938H0.703125C0.314531 22.5938 0 22.9083 0 23.2969C0 23.6855 0.314531 24 0.703125 24H23.2969C23.6855 24 24 23.6855 24 23.2969C24 22.9083 23.6855 22.5938 23.2969 22.5938Z" fill="white"/>
</g>
<defs>
<clipPath id="clip0_164_8868">
<rect width="24" height="24" fill="white"/>
</clipPath>
</defs>
</svg>
