<svg width="46" height="45" viewBox="0 0 46 45" fill="none" xmlns="http://www.w3.org/2000/svg">
<path d="M23.2473 44.774C35.5482 44.774 45.5201 34.8021 45.5201 22.5012C45.5201 10.2004 35.5482 0.228516 23.2473 0.228516C10.9464 0.228516 0.974609 10.2004 0.974609 22.5012C0.974609 34.8021 10.9464 44.774 23.2473 44.774Z" fill="#FFF0F1"/>
<path d="M16.241 20.6484H13.9674C13.4548 20.6484 13.0391 21.0642 13.0391 21.5767V31.7851C13.0391 32.2972 13.4548 32.7129 13.9674 32.7129H16.241C16.7536 32.7129 17.1689 32.2972 17.1689 31.7851V21.5767C17.1689 21.0642 16.7536 20.6484 16.241 20.6484Z" fill="#EC3C46"/>
<path d="M21.6707 23.4331H19.3971C18.884 23.4331 18.4688 23.8488 18.4688 24.3614V31.7853C18.4688 32.2983 18.884 32.7136 19.3971 32.7136H21.6707C22.1833 32.7136 22.5986 32.2978 22.5986 31.7853V24.3614C22.5986 23.8488 22.1833 23.4331 21.6707 23.4331Z" fill="#EC3C46"/>
<path d="M27.099 23.4331H24.8253C24.3127 23.4331 23.8975 23.8488 23.8975 24.3614V31.7853C23.8975 32.2983 24.3127 32.7136 24.8253 32.7136H27.099C27.612 32.7136 28.0273 32.2978 28.0273 31.7853V24.3614C28.0273 23.8488 27.612 23.4331 27.099 23.4331Z" fill="#EC3C46"/>
<path d="M32.5277 20.6484H30.254C29.7415 20.6484 29.3262 21.0642 29.3262 21.5767V31.7851C29.3262 32.2977 29.7415 32.7129 30.254 32.7129H32.5277C33.0403 32.7129 33.456 32.2968 33.456 31.7851V21.5767C33.456 21.0642 33.0403 20.6484 32.5277 20.6484Z" fill="#EC3C46"/>
<path d="M23.5186 17.8867V19.5574C24.0242 19.524 24.5572 19.2868 24.5572 18.7303C24.5572 18.156 23.9729 17.9879 23.5186 17.8867Z" fill="#EC3C46"/>
<path d="M22.0645 15.8865C22.0645 16.3087 22.3785 16.5529 23.0114 16.6797V15.1685C22.4363 15.1854 22.0645 15.5234 22.0645 15.8865Z" fill="#EC3C46"/>
<path d="M23.2477 12.2964C20.4333 12.2964 18.1436 14.5865 18.1436 17.4006C18.1436 20.2137 20.4333 22.5039 23.2477 22.5039C26.0622 22.5039 28.3519 20.2137 28.3519 17.4006C28.3519 14.5865 26.0622 12.2964 23.2477 12.2964ZM23.5184 20.4192V20.9418C23.5184 21.0855 23.408 21.2289 23.2638 21.2289C23.1213 21.2289 23.0123 21.0855 23.0123 20.9418V20.4192C21.5862 20.3844 20.8768 19.5321 20.8768 18.8653C20.8768 18.5287 21.0805 18.3341 21.3994 18.3341C22.3446 18.3341 21.6096 19.4987 23.0123 19.5573V17.7937C21.7612 17.5665 21.0036 17.0178 21.0036 16.0813C21.0036 14.934 21.9576 14.3424 23.0123 14.3094V13.8593C23.0123 13.7156 23.1213 13.5722 23.2638 13.5722C23.408 13.5722 23.5184 13.7156 23.5184 13.8593V14.3094C24.176 14.3268 25.5266 14.7394 25.5266 15.567C25.5266 15.8958 25.2807 16.0895 24.9936 16.0895C24.4445 16.0895 24.4523 15.1873 23.5184 15.1699V16.7733C24.6321 17.01 25.6187 17.3389 25.6187 18.6386C25.6187 19.7689 24.7751 20.3423 23.5184 20.4192Z" fill="#EC3C46"/>
</svg>
