<svg width="46" height="45" viewBox="0 0 46 45" fill="none" xmlns="http://www.w3.org/2000/svg">
<path d="M22.8997 44.774C35.2006 44.774 45.1724 34.8021 45.1724 22.5012C45.1724 10.2004 35.2006 0.228516 22.8997 0.228516C10.5988 0.228516 0.626953 10.2004 0.626953 22.5012C0.626953 34.8021 10.5988 44.774 22.8997 44.774Z" fill="#FCEDFC"/>
<path d="M15.0861 28.9775C15.0861 27.2447 15.6904 25.6558 16.7002 24.4103C16.2946 24.2745 15.8652 24.2026 15.4199 24.2026C13.1139 24.2026 11.2372 26.0871 11.2372 28.4026C11.192 28.8824 11.5514 29.3089 12.0324 29.3048H15.0938C15.0812 29.2075 15.0876 29.0758 15.086 28.9776L15.0861 28.9775Z" fill="#881E8A"/>
<path d="M15.4196 23.6979C16.6043 23.6979 17.6143 22.9632 18.0436 21.9252C17.4155 21.0469 17.0497 19.977 17.0497 18.8272C17.0497 18.7313 17.0497 18.6356 17.0656 18.5397C16.5965 18.2123 16.0319 18.0127 15.4195 18.0127C13.861 18.0127 12.5967 19.2902 12.5967 20.8553C12.5967 22.4203 13.861 23.6979 15.4195 23.6979L15.4196 23.6979Z" fill="#881E8A"/>
<path d="M29.3193 24.2017C28.874 24.2017 28.4446 24.2736 28.0391 24.4094C29.049 25.655 29.6532 27.2439 29.6532 28.9766C29.6516 29.0757 29.658 29.2065 29.6452 29.304H32.7068C33.1878 29.3079 33.5472 28.8816 33.5019 28.4018C33.5019 26.0861 31.6253 24.2017 29.3193 24.2017L29.3193 24.2017Z" fill="#881E8A"/>
<path d="M29.3194 23.6979C30.878 23.6979 32.1423 22.4203 32.1423 20.8553C32.1423 19.2902 30.878 18.0127 29.3194 18.0127C28.707 18.0127 28.1426 18.2123 27.6733 18.5397C27.6893 18.6356 27.6893 18.7313 27.6893 18.8272C27.6893 19.977 27.3235 21.0469 26.6953 21.9252C27.1247 22.9632 28.1346 23.6979 29.3194 23.6979L29.3194 23.6979Z" fill="#881E8A"/>
<path d="M22.3702 23.2617C19.2325 23.2617 16.6791 25.8255 16.6791 28.9765C16.6217 29.4652 16.9677 29.9291 17.4742 29.925H27.2653C27.7726 29.9289 28.1178 29.4659 28.0605 28.9765C28.0605 25.8259 25.5079 23.2617 22.3702 23.2617Z" fill="#881E8A"/>
<path d="M22.3705 22.5719C24.4283 22.5719 26.1023 20.8912 26.1023 18.8247C26.1023 16.7583 24.4285 15.0767 22.3705 15.0767C20.3126 15.0767 18.6387 16.7574 18.6387 18.8247C18.6387 20.891 20.3126 22.5719 22.3705 22.5719Z" fill="#881E8A"/>
</svg>
