<svg width="45" height="45" viewBox="0 0 45 45" fill="none" xmlns="http://www.w3.org/2000/svg">
<path d="M22.552 44.774C34.8529 44.774 44.8248 34.8021 44.8248 22.5012C44.8248 10.2004 34.8529 0.228516 22.552 0.228516C10.2511 0.228516 0.279297 10.2004 0.279297 22.5012C0.279297 34.8021 10.2511 44.774 22.552 44.774Z" fill="#F0FFF5"/>
<path d="M25.7353 15.9725C26.2167 15.1613 26.7571 14.242 26.6973 13.2071C26.648 12.3486 26.0754 11.4763 25.2475 11.3741C24.5137 11.2907 23.8336 11.8196 23.0997 11.9031C22.2053 12.0122 20.7233 11.2446 20.0527 12.2326C19.5624 12.9533 20.0931 13.9913 20.8045 15.9726L25.7353 15.9725Z" fill="#6ABD8B"/>
<path d="M22.2256 24.4156C22.2256 24.9216 22.5934 25.0762 23.0866 25.2366V23.667C22.6366 23.7078 22.2256 23.9456 22.2256 24.4156Z" fill="#6ABD8B"/>
<path d="M23.6602 26.5078V28.1406C24.1324 28.0914 24.5932 27.8528 24.5932 27.3605C24.5932 26.8324 24.1879 26.668 23.6602 26.5078Z" fill="#6ABD8B"/>
<path d="M26.4882 17.7238C26.2012 17.8832 25.9778 17.8132 25.6425 17.8306C25.8527 18.4133 26.2053 18.7641 26.014 19.3154C25.8602 19.7349 25.4253 20.0168 24.9402 19.8909C24.9254 19.9374 25.0963 21.1623 24.0454 21.1623C23.5488 21.1623 23.1506 20.7494 23.1506 20.2344V17.8308C20.7114 17.7832 20.5415 17.9422 20.1526 17.6777C17.5754 19.2879 15.79 22.8237 15.79 26.9301C15.79 32.5542 19.146 33.6398 23.2848 33.6398C27.4193 33.6398 30.7796 32.554 30.7796 26.9301C30.7796 22.8602 29.0209 19.3522 26.4884 17.7238L26.4882 17.7238ZM23.66 29.1117V29.7646H23.086V29.1024C22.2666 29.0179 21.5311 28.6883 20.8791 28.1138L21.5338 27.3246C22.0363 27.7661 22.5535 28.0291 23.0858 28.1138V26.3538C21.9688 26.0841 21.1301 25.7131 21.1301 24.5258C21.1301 23.4031 22.009 22.7541 23.0858 22.6979V22.2442H23.6598V22.7067C24.3175 22.7555 24.9396 22.9821 25.5257 23.3874L24.9423 24.222C24.5478 23.9378 24.1201 23.7625 23.6596 23.6955V25.401H23.6866C24.8207 25.6706 25.6868 26.0675 25.6868 27.2743C25.6873 28.4311 24.7665 29.0567 23.66 29.1116L23.66 29.1117Z" fill="#6ABD8B"/>
<path d="M26.2963 16.9025C26.2963 16.7743 26.1962 16.6706 26.0726 16.6706L20.6465 16.6704C20.5229 16.6704 20.4229 16.7741 20.4229 16.9024C20.4229 17.0306 20.5229 17.1343 20.6465 17.1343H23.82V20.2335C23.82 20.3618 23.92 20.4655 24.0436 20.4655C24.1673 20.4655 24.2673 20.3618 24.2673 20.2335V17.505L24.9694 19.0892C25.0209 19.2055 25.1539 19.2564 25.2661 19.2028C25.3785 19.1494 25.4276 19.0117 25.3758 18.8951L24.5952 17.1342H26.0722C26.1962 17.1345 26.2963 17.0308 26.2963 16.9026L26.2963 16.9025Z" fill="#6ABD8B"/>
</svg>
