<svg width="46" height="45" viewBox="0 0 46 45" fill="none" xmlns="http://www.w3.org/2000/svg">
<path d="M23.2044 44.774C35.5053 44.774 45.4771 34.8021 45.4771 22.5012C45.4771 10.2004 35.5053 0.228516 23.2044 0.228516C10.9035 0.228516 0.931641 10.2004 0.931641 22.5012C0.931641 34.8021 10.9035 44.774 23.2044 44.774Z" fill="#E3EEF9"/>
<g clip-path="url(#clip0_164_8921)">
<path d="M30.7499 25.4558H29.7134V24.4193C29.7134 23.8469 29.2493 23.3828 28.6769 23.3828C28.1045 23.3828 27.6404 23.8469 27.6404 24.4193V25.4558H26.6039C26.0315 25.4558 25.5674 25.9199 25.5674 26.4923C25.5674 27.0647 26.0315 27.5288 26.6039 27.5288H27.6404V28.5653C27.6404 29.1377 28.1045 29.6018 28.6769 29.6018C29.2493 29.6018 29.7134 29.1377 29.7134 28.5653V27.5288H30.7499C31.3223 27.5288 31.7864 27.0647 31.7864 26.4923C31.7864 25.9199 31.3223 25.4558 30.7499 25.4558Z" fill="#244F96"/>
<path d="M28.6766 19.236C26.2937 19.236 24.1754 20.3909 22.852 22.1702C22.3133 22.0569 21.7643 21.9999 21.2138 22C20.6166 22 20.0347 22.0667 19.4749 22.1922C16.8407 22.7825 14.6967 24.6843 13.7668 27.1737C13.4357 28.0606 13.2665 28.9998 13.2673 29.9465C13.2673 30.5189 13.7314 30.983 14.3038 30.983H22.9825C24.3124 32.6654 26.3705 33.747 28.6766 33.747C32.6773 33.747 35.9321 30.4922 35.9321 26.4915C35.9321 22.4907 32.6773 19.236 28.6766 19.236ZM28.6766 31.674C27.7706 31.6747 26.8805 31.4363 26.0961 30.983C24.5428 30.087 23.4941 28.41 23.4941 26.4915C23.4941 25.1088 24.0394 23.8519 24.925 22.9216C25.8696 21.9294 27.2016 21.309 28.6766 21.309C31.5342 21.309 33.8591 23.6339 33.8591 26.4915C33.8591 29.3491 31.5342 31.674 28.6766 31.674ZM12.7317 15.591C12.7317 17.2264 14.0009 18.5699 15.6059 18.6907C15.0958 17.7715 14.8047 16.7147 14.8047 15.591C14.8047 14.4674 15.0958 13.4105 15.6059 12.4914C14.0009 12.6121 12.7317 13.9557 12.7317 15.591ZM16.9376 20.8867C16.577 20.8115 16.2096 20.7735 15.8412 20.7735C12.8837 20.7735 10.4775 23.1797 10.4775 26.1372C10.4775 26.7096 10.9416 27.1737 11.514 27.1737H11.5849C12.3866 24.394 14.3622 22.1072 16.9376 20.8867ZM17.6789 13.0846C17.1752 13.7929 16.8777 14.6576 16.8777 15.591C16.8777 16.5243 17.1752 17.389 17.6789 18.0973C18.4654 19.2033 19.7563 19.9269 21.2138 19.9269C23.6047 19.9269 25.5498 17.9818 25.5498 15.5909C25.5498 13.2 23.6047 11.2549 21.2138 11.2549C19.7563 11.255 18.4654 11.9786 17.6789 13.0846Z" fill="#244F96"/>
</g>
<defs>
<clipPath id="clip0_164_8921">
<rect width="25.4545" height="25.4545" fill="white" transform="translate(10.4775 9.77344)"/>
</clipPath>
</defs>
</svg>
