<svg width="38" height="38" viewBox="0 0 38 38" fill="none" xmlns="http://www.w3.org/2000/svg">
<rect width="38" height="38" rx="6" fill="#FF0000" fill-opacity="0.05"/>
<g clip-path="url(#clip0_1392_15909)">
<path d="M22.3335 13.9999H25.6668V15.3333H24.3335V23.9999C24.3335 24.1767 24.2633 24.3463 24.1382 24.4713C24.0132 24.5963 23.8436 24.6666 23.6668 24.6666H14.3335C14.1567 24.6666 13.9871 24.5963 13.8621 24.4713C13.7371 24.3463 13.6668 24.1767 13.6668 23.9999V15.3333H12.3335V13.9999H15.6668V11.9999C15.6668 11.8231 15.7371 11.6535 15.8621 11.5285C15.9871 11.4035 16.1567 11.3333 16.3335 11.3333H21.6668C21.8436 11.3333 22.0132 11.4035 22.1382 11.5285C22.2633 11.6535 22.3335 11.8231 22.3335 11.9999V13.9999ZM23.0002 15.3333H15.0002V23.3333H23.0002V15.3333ZM17.0002 17.3333H18.3335V21.3333H17.0002V17.3333ZM19.6668 17.3333H21.0002V21.3333H19.6668V17.3333ZM17.0002 12.6666V13.9999H21.0002V12.6666H17.0002Z" fill="#FB576A"/>
</g>
<defs>
<clipPath id="clip0_1392_15909">
<rect width="16" height="16" fill="white" transform="translate(11 10)"/>
</clipPath>
</defs>
</svg>
