<svg width="21" height="21" viewBox="0 0 21 21" fill="none" xmlns="http://www.w3.org/2000/svg">
<g clip-path="url(#clip0_2_4124)">
<path d="M11.1204 8.59087C10.3329 6.36677 8.21864 4.77271 5.72728 4.77271C2.56296 4.77271 0 7.33566 0 10.5C0 13.6643 2.56296 16.2273 5.72728 16.2273C8.21864 16.2273 10.3329 14.6332 11.1204 12.4091H15.2727V16.2273H19.0909V12.4091H21V8.59087H11.1204ZM5.72728 12.409C4.67252 12.409 3.81817 11.5547 3.81817 10.4999C3.81817 9.44513 4.67252 8.59087 5.72728 8.59087C6.78204 8.59087 7.63638 9.44518 7.63638 10.5C7.63638 11.5548 6.78204 12.409 5.72728 12.409Z" fill="#AAAAAA"/>
</g>
<defs>
<clipPath id="clip0_2_4124">
<rect width="21" height="21" fill="white"/>
</clipPath>
</defs>
</svg>
