<svg width="65" height="65" viewBox="0 0 65 65" fill="none" xmlns="http://www.w3.org/2000/svg">
<rect width="65" height="65" rx="4" fill="#F8F8F8" fill-opacity="0.16"/>
<g clip-path="url(#clip0_1201_3613)">
<path d="M46.9215 27.9817H42.79V23.6944C42.79 23.1832 42.3755 22.7687 41.8643 22.7687H38.5939V18.0785C38.5939 17.5673 38.1795 17.1528 37.6682 17.1528H26.5524C26.0412 17.1528 25.6267 17.5673 25.6267 18.0785V22.7687H22.233C21.7217 22.7687 21.3073 23.1832 21.3073 23.6944V27.9817H17.1757C16.6645 27.9817 16.25 28.3962 16.25 28.9074V47.8244C16.25 48.3356 16.6645 48.7501 17.1757 48.7501H46.9215C47.4328 48.7501 47.8472 48.3356 47.8472 47.8244V28.9074C47.8472 28.3961 47.4328 27.9817 46.9215 27.9817ZM18.1014 29.8331H21.3073V46.8987H18.1014V29.8331ZM23.1587 24.6201H26.5524C27.0637 24.6201 27.4781 24.2057 27.4781 23.6944V19.0042H36.7425V23.6944C36.7425 24.2057 37.157 24.6201 37.6682 24.6201H40.9385V46.8987H36.116V42.1099C36.116 41.5987 35.7015 41.1842 35.1903 41.1842H28.6737C28.1625 41.1842 27.748 41.5987 27.748 42.1099V46.8987H23.1587V24.6201ZM34.2646 46.8987H29.5994V43.0356H34.2646V46.8987ZM45.9958 46.8987H42.79V29.8331H45.9958V46.8987Z" fill="white" fill-opacity="0.39"/>
<path d="M36.2402 39.3656H37.2371C37.7483 39.3656 38.1628 38.9511 38.1628 38.4399C38.1628 37.9286 37.7483 37.5142 37.2371 37.5142H36.2402C35.7289 37.5142 35.3145 37.9286 35.3145 38.4399C35.3145 38.9511 35.7289 39.3656 36.2402 39.3656Z" fill="white" fill-opacity="0.39"/>
<path d="M32.5471 37.5142H31.5502C31.039 37.5142 30.6245 37.9286 30.6245 38.4399C30.6245 38.9511 31.039 39.3656 31.5502 39.3656H32.5471C33.0584 39.3656 33.4728 38.9511 33.4728 38.4399C33.4728 37.9286 33.0584 37.5142 32.5471 37.5142Z" fill="white" fill-opacity="0.39"/>
<path d="M27.8567 39.3656C28.3679 39.3656 28.7824 38.9511 28.7824 38.4399C28.7824 37.9286 28.3679 37.5142 27.8567 37.5142H26.8598C26.3485 37.5142 25.9341 37.9286 25.9341 38.4399C25.9341 38.9511 26.3485 39.3656 26.8598 39.3656H27.8567Z" fill="white" fill-opacity="0.39"/>
<path d="M36.2402 28.2572H37.2371C37.7483 28.2572 38.1628 27.8427 38.1628 27.3315C38.1628 26.8202 37.7483 26.4058 37.2371 26.4058H36.2402C35.7289 26.4058 35.3145 26.8202 35.3145 27.3315C35.3145 27.8427 35.7289 28.2572 36.2402 28.2572Z" fill="white" fill-opacity="0.39"/>
<path d="M32.5471 26.4058H31.5502C31.039 26.4058 30.6245 26.8202 30.6245 27.3315C30.6245 27.8427 31.039 28.2572 31.5502 28.2572H32.5471C33.0584 28.2572 33.4728 27.8427 33.4728 27.3315C33.4728 26.8202 33.0584 26.4058 32.5471 26.4058Z" fill="white" fill-opacity="0.39"/>
<path d="M26.8598 28.2572H27.8567C28.3679 28.2572 28.7824 27.8427 28.7824 27.3315C28.7824 26.8202 28.3679 26.4058 27.8567 26.4058H26.8598C26.3485 26.4058 25.9341 26.8202 25.9341 27.3315C25.9341 27.8427 26.3485 28.2572 26.8598 28.2572Z" fill="white" fill-opacity="0.39"/>
<path d="M36.2402 31.9598H37.2371C37.7483 31.9598 38.1628 31.5453 38.1628 31.0341C38.1628 30.5229 37.7483 30.1084 37.2371 30.1084H36.2402C35.7289 30.1084 35.3145 30.5229 35.3145 31.0341C35.3145 31.5453 35.7289 31.9598 36.2402 31.9598Z" fill="white" fill-opacity="0.39"/>
<path d="M32.5471 30.1084H31.5502C31.039 30.1084 30.6245 30.5229 30.6245 31.0341C30.6245 31.5453 31.039 31.9598 31.5502 31.9598H32.5471C33.0584 31.9598 33.4728 31.5453 33.4728 31.0341C33.4728 30.5229 33.0584 30.1084 32.5471 30.1084Z" fill="white" fill-opacity="0.39"/>
<path d="M26.8598 31.9598H27.8567C28.3679 31.9598 28.7824 31.5453 28.7824 31.0341C28.7824 30.5229 28.3679 30.1084 27.8567 30.1084H26.8598C26.3485 30.1084 25.9341 30.5229 25.9341 31.0341C25.9341 31.5453 26.3485 31.9598 26.8598 31.9598Z" fill="white" fill-opacity="0.39"/>
<path d="M36.2402 35.6629H37.2371C37.7483 35.6629 38.1628 35.2485 38.1628 34.7372C38.1628 34.226 37.7483 33.8115 37.2371 33.8115H36.2402C35.7289 33.8115 35.3145 34.226 35.3145 34.7372C35.3145 35.2485 35.7289 35.6629 36.2402 35.6629Z" fill="white" fill-opacity="0.39"/>
<path d="M32.5471 33.8115H31.5502C31.039 33.8115 30.6245 34.226 30.6245 34.7372C30.6245 35.2485 31.039 35.6629 31.5502 35.6629H32.5471C33.0584 35.6629 33.4728 35.2485 33.4728 34.7372C33.4728 34.226 33.0584 33.8115 32.5471 33.8115Z" fill="white" fill-opacity="0.39"/>
<path d="M26.8598 35.6629H27.8567C28.3679 35.6629 28.7824 35.2485 28.7824 34.7372C28.7824 34.226 28.3679 33.8115 27.8567 33.8115H26.8598C26.3485 33.8115 25.9341 34.226 25.9341 34.7372C25.9341 35.2485 26.3485 35.6629 26.8598 35.6629Z" fill="white" fill-opacity="0.39"/>
<path d="M30.9208 23.411H31.1231V23.6131C31.1231 24.1244 31.5375 24.5388 32.0488 24.5388C32.56 24.5388 32.9745 24.1244 32.9745 23.6131V23.411H33.1766C33.6879 23.411 34.1023 22.9965 34.1023 22.4853C34.1023 21.974 33.6879 21.5596 33.1766 21.5596H32.9745V21.3573C32.9745 20.8461 32.56 20.4316 32.0488 20.4316C31.5375 20.4316 31.1231 20.8461 31.1231 21.3573V21.5596H30.9208C30.4096 21.5596 29.9951 21.974 29.9951 22.4853C29.9951 22.9965 30.4096 23.411 30.9208 23.411Z" fill="white" fill-opacity="0.39"/>
</g>
<defs>
<clipPath id="clip0_1201_3613">
<rect width="31.5972" height="31.5972" fill="white" transform="translate(16.25 17.1528)"/>
</clipPath>
</defs>
</svg>
