<svg width="20" height="16" viewBox="0 0 20 16" fill="none" xmlns="http://www.w3.org/2000/svg">
<path d="M19.1667 9.14941H0.833333C0.373332 9.14941 0 8.70142 0 8.14941C0 7.59741 0.373332 7.14941 0.833333 7.14941H19.1667C19.6267 7.14941 20 7.59741 20 8.14941C20 8.70142 19.6267 9.14941 19.1667 9.14941Z" fill="black"/>
<path d="M19.1667 2.76025H0.833333C0.373332 2.76025 0 2.31226 0 1.76025C0 1.20825 0.373332 0.760254 0.833333 0.760254H19.1667C19.6267 0.760254 20 1.20825 20 1.76025C20 2.31226 19.6267 2.76025 19.1667 2.76025Z" fill="black"/>
<path d="M19.1667 15.5381H0.833333C0.373332 15.5381 0 15.0901 0 14.5381C0 13.9861 0.373332 13.5381 0.833333 13.5381H19.1667C19.6267 13.5381 20 13.9861 20 14.5381C20 15.0901 19.6267 15.5381 19.1667 15.5381Z" fill="black"/>
</svg>
