<svg width="28" height="28" viewBox="0 0 28 28" fill="none" xmlns="http://www.w3.org/2000/svg">
<path d="M9.447 18.1049L5.447 16.1049C5.30818 16.0356 5.15515 15.9995 5 15.9995C4.84485 15.9995 4.69182 16.0356 4.553 16.1049L0.553 18.1049C0.518 18.1229 0.491 18.1489 0.459 18.1699L5 20.4399L9.541 18.1699C9.509 18.1499 9.482 18.1229 9.447 18.1049ZM1.08612e-07 23.9999C-8.64869e-05 24.1857 0.0516099 24.3679 0.149289 24.526C0.246969 24.684 0.386767 24.8118 0.553 24.8949L4.5 26.9999V21.3099L1.08612e-07 19.0599V23.9999ZM5.5 26.9999L9.447 24.8949C9.61323 24.8118 9.75303 24.684 9.85071 24.526C9.94839 24.3679 10.0001 24.1857 10 23.9999V19.0599L5.5 21.3099V26.9999ZM20.447 18.1049L16.447 16.1049C16.3082 16.0356 16.1552 15.9995 16 15.9995C15.8448 15.9995 15.6918 16.0356 15.553 16.1049L11.553 18.1049C11.518 18.1229 11.491 18.1489 11.459 18.1699L16 20.4399L20.541 18.1699C20.509 18.1499 20.482 18.1229 20.447 18.1049ZM11 23.9999C10.9999 24.1857 11.0516 24.3679 11.1493 24.526C11.247 24.684 11.3868 24.8118 11.553 24.8949L15.5 26.9999V21.3099L11 19.0599V23.9999ZM21 23.9999V19.0599L16.5 21.3099V26.9999L20.447 24.8949C20.6132 24.8118 20.753 24.684 20.8507 24.526C20.9484 24.3679 21.0001 24.1857 21 23.9999Z" fill="#FD8900"/>
<path d="M27 0H9C8.73478 0 8.48043 0.105357 8.29289 0.292893C8.10536 0.48043 8 0.734784 8 1V16.25L10.443 17.457C10.459 17.465 10.472 17.479 10.488 17.487C10.513 17.472 10.533 17.452 10.56 17.439L15.105 15.211C15.382 15.073 15.691 15 16 15C16.309 15 16.618 15.073 16.895 15.21L21.443 17.457C21.6101 17.5396 21.7509 17.6672 21.8493 17.8256C21.9477 17.9839 21.9999 18.1666 22 18.353V24C22 24.762 21.577 25.447 20.896 25.788L16.75 28H27C27.2652 28 27.5196 27.8946 27.7071 27.7071C27.8946 27.5196 28 27.2652 28 27V1C28 0.734784 27.8946 0.48043 27.7071 0.292893C27.5196 0.105357 27.2652 0 27 0ZM13.854 12.854L11.854 14.854C11.8077 14.9008 11.7526 14.938 11.6918 14.9633C11.631 14.9887 11.5658 15.0017 11.5 15.0017C11.4342 15.0017 11.369 14.9887 11.3082 14.9633C11.2474 14.938 11.1923 14.9008 11.146 14.854L10.146 13.854C10.0995 13.8075 10.0626 13.7523 10.0375 13.6916C10.0123 13.6308 9.99937 13.5657 9.99937 13.5C9.99937 13.4343 10.0123 13.3692 10.0375 13.3084C10.0626 13.2477 10.0995 13.1925 10.146 13.146C10.1925 13.0995 10.2477 13.0626 10.3084 13.0375C10.3692 13.0123 10.4343 12.9994 10.5 12.9994C10.5657 12.9994 10.6308 13.0123 10.6916 13.0375C10.7523 13.0626 10.8075 13.0995 10.854 13.146L11.5 13.793L13.146 12.146C13.1925 12.0995 13.2477 12.0626 13.3084 12.0375C13.3692 12.0123 13.4343 11.9994 13.5 11.9994C13.5657 11.9994 13.6308 12.0123 13.6916 12.0375C13.7523 12.0626 13.8075 12.0995 13.854 12.146C13.9005 12.1925 13.9374 12.2477 13.9625 12.3084C13.9877 12.3692 14.0006 12.4343 14.0006 12.5C14.0006 12.5657 13.9877 12.6308 13.9625 12.6916C13.9374 12.7523 13.9005 12.8075 13.854 12.854ZM13.854 7.854L11.854 9.854C11.8077 9.9008 11.7526 9.93796 11.6918 9.96332C11.631 9.98868 11.5658 10.0017 11.5 10.0017C11.4342 10.0017 11.369 9.98868 11.3082 9.96332C11.2474 9.93796 11.1923 9.9008 11.146 9.854L10.146 8.854C10.0995 8.80751 10.0626 8.75232 10.0375 8.69158C10.0123 8.63084 9.99937 8.56574 9.99937 8.5C9.99937 8.43426 10.0123 8.36916 10.0375 8.30842C10.0626 8.24768 10.0995 8.19249 10.146 8.146C10.1925 8.09951 10.2477 8.06264 10.3084 8.03748C10.3692 8.01232 10.4343 7.99937 10.5 7.99937C10.5657 7.99937 10.6308 8.01232 10.6916 8.03748C10.7523 8.06264 10.8075 8.09951 10.854 8.146L11.5 8.793L13.146 7.146C13.1925 7.09951 13.2477 7.06264 13.3084 7.03748C13.3692 7.01232 13.4343 6.99937 13.5 6.99937C13.5657 6.99937 13.6308 7.01232 13.6916 7.03748C13.7523 7.06264 13.8075 7.09951 13.854 7.146C13.9005 7.19249 13.9374 7.24768 13.9625 7.30842C13.9877 7.36916 14.0006 7.43426 14.0006 7.5C14.0006 7.56574 13.9877 7.63084 13.9625 7.69158C13.9374 7.75232 13.9005 7.80751 13.854 7.854ZM13.854 2.854L11.854 4.854C11.8077 4.9008 11.7526 4.93796 11.6918 4.96332C11.631 4.98867 11.5658 5.00173 11.5 5.00173C11.4342 5.00173 11.369 4.98867 11.3082 4.96332C11.2474 4.93796 11.1923 4.9008 11.146 4.854L10.146 3.854C10.0521 3.76011 9.99937 3.63278 9.99937 3.5C9.99937 3.36722 10.0521 3.23989 10.146 3.146C10.2399 3.05211 10.3672 2.99937 10.5 2.99937C10.6328 2.99937 10.7601 3.05211 10.854 3.146L11.5 3.793L13.146 2.146C13.1925 2.09951 13.2477 2.06264 13.3084 2.03748C13.3692 2.01232 13.4343 1.99937 13.5 1.99937C13.5657 1.99937 13.6308 2.01232 13.6916 2.03748C13.7523 2.06264 13.8075 2.09951 13.854 2.146C13.9005 2.19249 13.9374 2.24768 13.9625 2.30842C13.9877 2.36916 14.0006 2.43426 14.0006 2.5C14.0006 2.56574 13.9877 2.63084 13.9625 2.69158C13.9374 2.75232 13.9005 2.80751 13.854 2.854ZM23 8.5C24.654 8.5 26 9.846 26 11.5C25.9985 12.2077 25.7467 12.892 25.2892 13.4319C24.8316 13.9718 24.1979 14.3324 23.5 14.45V15.5C23.5 15.6326 23.4473 15.7598 23.3536 15.8536C23.2598 15.9473 23.1326 16 23 16C22.8674 16 22.7402 15.9473 22.6464 15.8536C22.5527 15.7598 22.5 15.6326 22.5 15.5V14.45C21.8021 14.3324 21.1684 13.9718 20.7108 13.4319C20.2533 12.892 20.0015 12.2077 20 11.5C20 11.3674 20.0527 11.2402 20.1464 11.1464C20.2402 11.0527 20.3674 11 20.5 11C20.6326 11 20.7598 11.0527 20.8536 11.1464C20.9473 11.2402 21 11.3674 21 11.5C21 12.603 21.897 13.5 23 13.5C24.103 13.5 25 12.603 25 11.5C25 10.397 24.103 9.5 23 9.5C21.346 9.5 20 8.154 20 6.5C20.0015 5.79231 20.2533 5.10797 20.7108 4.56808C21.1684 4.02819 21.8021 3.66755 22.5 3.55V2.5C22.5 2.36739 22.5527 2.24021 22.6464 2.14645C22.7402 2.05268 22.8674 2 23 2C23.1326 2 23.2598 2.05268 23.3536 2.14645C23.4473 2.24021 23.5 2.36739 23.5 2.5V3.55C24.1979 3.66755 24.8316 4.02819 25.2892 4.56808C25.7467 5.10797 25.9985 5.79231 26 6.5C26 6.63261 25.9473 6.75979 25.8536 6.85355C25.7598 6.94732 25.6326 7 25.5 7C25.3674 7 25.2402 6.94732 25.1464 6.85355C25.0527 6.75979 25 6.63261 25 6.5C25 5.397 24.103 4.5 23 4.5C21.897 4.5 21 5.397 21 6.5C21 7.603 21.897 8.5 23 8.5Z" fill="#FD8900"/>
</svg>
