<svg width="18" height="18" viewBox="0 0 18 18" fill="none" xmlns="http://www.w3.org/2000/svg">
<g clip-path="url(#clip0_2_424)">
<path fill-rule="evenodd" clip-rule="evenodd" d="M1.50001 16.5L5.46826 15.618C6.55472 16.1989 7.76802 16.5019 9.00001 16.5C13.1423 16.5 16.5 13.1423 16.5 9C16.5 4.85775 13.1423 1.5 9.00001 1.5C4.85776 1.5 1.50001 4.85775 1.50001 9C1.49815 10.232 1.80116 11.4453 2.38201 12.5317L1.50001 16.5ZM6 10C6.55228 10 7 9.55229 7 9C7 8.44772 6.55228 8 6 8C5.44772 8 5 8.44772 5 9C5 9.55229 5.44772 10 6 10ZM10 9C10 9.55229 9.55229 10 9 10C8.44772 10 8 9.55229 8 9C8 8.44772 8.44772 8 9 8C9.55229 8 10 8.44772 10 9ZM12 10C12.5523 10 13 9.55229 13 9C13 8.44772 12.5523 8 12 8C11.4477 8 11 8.44772 11 9C11 9.55229 11.4477 10 12 10Z" fill="#60C5C1"/>
</g>
<defs>
<clipPath id="clip0_2_424">
<rect width="18" height="18" fill="white"/>
</clipPath>
</defs>
</svg>
