<svg width="20" height="16" viewBox="0 0 20 16" fill="none" xmlns="http://www.w3.org/2000/svg">
<path d="M4.5714 8.56814C4.78445 8.39375 5.10516 8.41715 5.28804 8.62032C5.47074 8.82368 5.44622 9.12996 5.23318 9.30456L0.466582 13.2136C0.824239 13.8873 1.37059 14.4531 2.04462 14.8487C2.71865 15.2443 3.49427 15.4539 4.28558 15.4544H15.7144C16.5087 15.4543 17.2873 15.2433 17.9634 14.8452C18.6395 14.4472 19.1863 13.8776 19.543 13.2L13.9191 8.59996L13.3048 8.94999C12.4076 9.46736 11.3793 9.74075 10.3311 9.74075C9.28284 9.74075 8.25435 9.46738 7.3571 8.94999L0 4.73633V11.3636C0.000188525 11.6539 0.0320512 11.9434 0.0952133 12.2272L4.5714 8.56814Z" fill="#A7AFB2"/>
<path d="M15.7144 0H4.28563C3.2849 0.00143971 2.31597 0.336532 1.54657 0.947304C0.776978 1.55829 0.255277 2.40645 0.0712891 3.34551L8.01916 7.9C8.71789 8.3015 9.51804 8.51366 10.3334 8.51366C11.149 8.51366 11.9492 8.30149 12.6479 7.9L13.0099 7.69089L13.8148 7.2318L19.9768 3.70003H19.9766C19.8748 2.68809 19.382 1.74852 18.5941 1.06447C17.8062 0.380594 16.7798 0.00106384 15.7147 4.21789e-06L15.7144 0Z" fill="#A7AFB2"/>
<path d="M19.9096 12.2138C19.9688 11.934 19.9991 11.6493 19.9999 11.3637V5.11377L14.8379 8.06823L19.9096 12.2138Z" fill="#A7AFB2"/>
</svg>
