<svg width="30" height="27" viewBox="0 0 30 27" fill="none" xmlns="http://www.w3.org/2000/svg">
<path d="M10.4999 6.875C8.75943 6.875 7.09024 7.5664 5.85953 8.79711C4.62882 10.0278 3.93742 11.697 3.93742 13.4375V18.5563L2.48492 20.7438C2.31082 21.0122 2.21207 21.3225 2.199 21.6421C2.18593 21.9618 2.25902 22.2791 2.41063 22.5609C2.56223 22.8426 2.78678 23.0784 3.06077 23.2437C3.33475 23.4089 3.64811 23.4974 3.96804 23.5H17.0318C17.3538 23.4989 17.6695 23.4108 17.9455 23.2449C18.2215 23.079 18.4474 22.8416 18.5994 22.5577C18.7515 22.2739 18.8239 21.9542 18.809 21.6325C18.7941 21.3109 18.6925 20.9992 18.5149 20.7306L17.0624 18.5563V13.4375C17.0624 11.697 16.371 10.0278 15.1403 8.79711C13.9096 7.5664 12.2404 6.875 10.4999 6.875Z" fill="black"/>
<path d="M10.5 26.125C11.0423 26.1244 11.5711 25.9558 12.0137 25.6424C12.4563 25.3291 12.7911 24.8863 12.9718 24.375H8.02808C8.20885 24.8863 8.54355 25.3291 8.98618 25.6424C9.42881 25.9558 9.95763 26.1244 10.5 26.125Z" fill="black"/>
<g filter="url(#filter0_d_1202_6772)">
<circle cx="20" cy="4" r="4" fill="#FFA41B"/>
</g>
<defs>
<filter id="filter0_d_1202_6772" x="10" y="0" width="20" height="20" filterUnits="userSpaceOnUse" color-interpolation-filters="sRGB">
<feFlood flood-opacity="0" result="BackgroundImageFix"/>
<feColorMatrix in="SourceAlpha" type="matrix" values="0 0 0 0 0 0 0 0 0 0 0 0 0 0 0 0 0 0 127 0" result="hardAlpha"/>
<feOffset dy="6"/>
<feGaussianBlur stdDeviation="3"/>
<feComposite in2="hardAlpha" operator="out"/>
<feColorMatrix type="matrix" values="0 0 0 0 1 0 0 0 0 0.738333 0 0 0 0 0.345833 0 0 0 0.38 0"/>
<feBlend mode="normal" in2="BackgroundImageFix" result="effect1_dropShadow_1202_6772"/>
<feBlend mode="normal" in="SourceGraphic" in2="effect1_dropShadow_1202_6772" result="shape"/>
</filter>
</defs>
</svg>
