<svg width="18" height="22" viewBox="0 0 18 22" fill="none" xmlns="http://www.w3.org/2000/svg">
<path d="M16.5829 15.2685L15.1867 13.2935C14.9825 12.9871 14.8803 12.6467 14.8803 12.306V7.33474C14.8803 3.82766 12.2244 0.967325 8.7853 0.797137C7.01476 0.694902 5.34617 1.342 4.08626 2.56768C2.79234 3.79365 2.11123 5.42795 2.11123 7.19849V12.3402C2.11123 12.7149 2.00899 13.0553 1.80481 13.3277L0.408652 15.3027C0.136215 15.6774 0 16.12 0 16.5626C0 17.7543 0.987478 18.7419 2.17923 18.7419H14.8459C16.0376 18.7419 17.0251 17.7544 17.0251 16.5626C16.9914 16.0857 16.8552 15.6431 16.5828 15.2684L16.5829 15.2685Z" fill="#A7AFB2"/>
<path d="M10.6251 19.5249H6.3347C5.85808 19.5249 5.4834 19.8996 5.4834 20.3762C5.4834 20.8528 5.85806 21.2275 6.3347 21.2275H10.5911C11.0677 21.2275 11.4424 20.8528 11.4424 20.3762C11.4424 19.8993 11.0678 19.5249 10.6251 19.5249Z" fill="#A7AFB2"/>
<circle cx="14.1516" cy="3.14477" r="3.14477" fill="#EC3C46"/>
</svg>
