<svg width="15" height="15" viewBox="0 0 15 15" fill="none" xmlns="http://www.w3.org/2000/svg">
<g clip-path="url(#clip0_1246_8175)">
<path d="M5.45502 14.7173C5.45624 14.7176 5.45776 14.7179 5.45914 14.7182L5.625 14.7653L5.6369 14.7618C6.24466 14.9171 6.86996 15 7.5 15C11.6353 15 15 11.6356 15 7.5C15 3.36441 11.6353 0 7.5 0C6.86996 0 6.24496 0.0828552 5.63721 0.238495L5.625 0.23468L5.45502 0.282745C2.24319 1.19125 0 4.15878 0 7.5C0 8.54401 0.219116 9.55185 0.618134 10.4715C1.49658 12.495 3.24692 14.0929 5.45502 14.7173ZM13.75 7.5C13.75 10.8047 11.17 13.5115 7.91931 13.7288C9.95193 12.3613 11.25 10.04 11.25 7.5C11.25 4.96002 9.95193 2.6387 7.91931 1.27121C11.17 1.48849 13.75 4.19525 13.75 7.5ZM1.27151 6.98715C1.27625 6.92993 1.28632 6.87439 1.29257 6.81747C1.30493 6.70593 1.31622 6.59409 1.33438 6.48376C1.34567 6.41556 1.36246 6.34933 1.37589 6.28189C1.39526 6.18469 1.41312 6.08719 1.43692 5.99152C1.45462 5.92056 1.47751 5.8519 1.4978 5.78186C1.52374 5.69183 1.54785 5.60089 1.57776 5.51254C1.60187 5.44159 1.63055 5.37277 1.65726 5.30289C1.6893 5.21744 1.71997 5.13153 1.75568 5.04807C1.78528 4.97849 1.82007 4.91119 1.85211 4.84314C1.89026 4.76212 1.92719 4.68063 1.96869 4.60159C2.00439 4.53369 2.04437 4.46808 2.08252 4.40155C2.12631 4.32526 2.16873 4.2482 2.21558 4.17374C2.25693 4.10812 2.30225 4.04526 2.34589 3.98132C2.39502 3.9093 2.44278 3.83682 2.49466 3.76724C2.5415 3.70438 2.59186 3.64471 2.64069 3.58368C2.6947 3.51654 2.7478 3.44879 2.80472 3.38379C2.85629 3.32474 2.91122 3.26843 2.96524 3.21121C3.02444 3.1488 3.08243 3.08533 3.14407 3.02536C3.20068 2.97028 3.25974 2.91809 3.31848 2.86499C3.38226 2.80716 3.44528 2.74902 3.5112 2.69379C3.57193 2.64313 3.63525 2.59567 3.69812 2.54715C3.76663 2.49435 3.83438 2.44125 3.90503 2.39151C3.96973 2.34558 4.03687 2.30316 4.1037 2.25967C4.17618 2.21252 4.24881 2.16461 4.32343 2.12036C4.39224 2.07962 4.46274 2.04193 4.53308 2.00378C4.60968 1.96213 4.68628 1.92032 4.76501 1.88187C4.83719 1.84662 4.91119 1.81442 4.98505 1.78192C5.06561 1.74622 5.14618 1.71097 5.22842 1.67877C5.3038 1.64932 5.38101 1.62277 5.45776 1.59622C5.51559 1.57623 5.57404 1.55716 5.63278 1.5387C8.2132 2.35306 10 4.77753 10 7.5C10 10.2225 8.2132 12.6472 5.63217 13.461C5.57495 13.4431 5.51849 13.4244 5.46219 13.405C5.38315 13.3778 5.30411 13.3507 5.22659 13.3203C5.14618 13.2887 5.06744 13.2544 4.98901 13.2198C4.91348 13.1862 4.83749 13.1534 4.76349 13.1172C4.68658 13.0794 4.61151 13.0388 4.53629 12.9982C4.46442 12.9591 4.39224 12.9207 4.3219 12.879C4.2485 12.8357 4.17755 12.7887 4.10629 12.7422C4.03839 12.6981 3.97003 12.6544 3.90411 12.6079C3.83438 12.5584 3.76755 12.5063 3.70026 12.4541C3.63693 12.4049 3.57254 12.3569 3.51089 12.3053C3.44559 12.2507 3.38318 12.1931 3.32001 12.1359C3.26096 12.0825 3.20099 12.0297 3.14407 11.974C3.08319 11.9144 3.02536 11.8515 2.96661 11.7897C2.91214 11.7319 2.8566 11.6753 2.80472 11.6156C2.74811 11.5509 2.69562 11.4838 2.64191 11.4169C2.59247 11.3556 2.54181 11.2953 2.49496 11.2325C2.44308 11.1629 2.39532 11.0907 2.3465 11.0187C2.30286 10.9547 2.25754 10.8916 2.21588 10.826C2.16904 10.7515 2.12662 10.6744 2.08282 10.5981C2.04468 10.5316 2.0047 10.4663 1.96899 10.3981C1.92749 10.3191 1.89087 10.2374 1.85257 10.1566C1.82037 10.0882 1.78558 10.0209 1.75598 9.95163C1.71997 9.86816 1.68976 9.78226 1.65756 9.69681C1.63101 9.62692 1.60217 9.55811 1.57806 9.48715C1.54816 9.3988 1.52405 9.30786 1.49811 9.21783C1.47781 9.1478 1.45493 9.07913 1.43723 9.00818C1.41312 8.91251 1.39557 8.8147 1.37619 8.7178C1.36276 8.65036 1.34598 8.58414 1.33469 8.51593C1.31622 8.40591 1.30524 8.29376 1.29288 8.18222C1.28662 8.12561 1.27655 8.06976 1.27182 8.01254C1.25748 7.84317 1.25 7.67212 1.25 7.5C1.25 7.32788 1.25748 7.15683 1.27151 6.98715Z" fill="white"/>
</g>
<defs>
<clipPath id="clip0_1246_8175">
<rect width="15" height="15" fill="white"/>
</clipPath>
</defs>
</svg>
