<svg width="32" height="32" viewBox="0 0 32 32" fill="none" xmlns="http://www.w3.org/2000/svg">
<path d="M25.7739 28.125C25.4192 27.5406 25.2031 26.8624 25.2031 26.1301V2.83751C25.2031 2.3567 24.8514 1.93464 24.3736 1.88107C23.8081 1.81764 23.3281 2.25964 23.3281 2.81251V4.68751C23.3281 5.20526 22.9084 5.62501 22.3906 5.62501H4.57812V23.4375C4.57812 26.0263 6.67681 28.125 9.26562 28.125H13.9531C13.9531 28.125 13.9588 23.2772 13.9695 23.2126C14.0873 20.732 16.142 18.75 18.6513 18.75C21.2359 18.75 23.3388 20.8528 23.3388 23.4375C23.3388 23.5388 23.3281 28.125 23.3281 28.125H25.7739ZM11.1512 20.625H9.27625C8.75806 20.625 8.33875 20.2057 8.33875 19.6875C8.33875 19.1693 8.75806 18.75 9.27625 18.75H11.1512C11.6694 18.75 12.0887 19.1693 12.0887 19.6875C12.0887 20.2057 11.6694 20.625 11.1512 20.625ZM20.5156 16.875H9.28988C8.80825 16.875 8.38594 16.5218 8.33387 16.0429C8.27237 15.4774 8.71269 15 9.26562 15H20.4914C20.973 15 21.3953 15.3533 21.4474 15.8321C21.5089 16.3976 21.0686 16.875 20.5156 16.875ZM20.5263 13.125H9.27625C8.75806 13.125 8.33875 12.7057 8.33875 12.1875C8.33875 11.6693 8.75806 11.25 9.27625 11.25H20.5263C21.0444 11.25 21.4638 11.6693 21.4638 12.1875C21.4638 12.7057 21.0444 13.125 20.5263 13.125ZM20.5263 9.37501H9.27625C8.75806 9.37501 8.33875 8.9557 8.33875 8.43751C8.33875 7.91932 8.75806 7.50001 9.27625 7.50001H20.5263C21.0444 7.50001 21.4638 7.91932 21.4638 8.43751C21.4638 8.9557 21.0444 9.37501 20.5263 9.37501Z" fill="#8A1E3E"/>
<path d="M18.6511 26.25C17.952 26.25 17.2862 25.9903 16.7765 25.5187L16.7659 25.509L16.7551 25.4996C16.1727 24.9931 15.8387 24.2414 15.8387 23.4375C15.8387 21.8867 17.1004 20.625 18.6512 20.625C20.202 20.625 21.4637 21.8867 21.4637 23.4375C21.4637 24.2414 21.1222 24.9998 20.5267 25.5182L20.516 25.5276L20.5055 25.5372C20.0089 25.9969 19.3502 26.25 18.6511 26.25ZM29.0828 28.125H29.0731C27.9712 28.125 27.078 27.2318 27.078 26.1299V21.4375H30.1402C30.6581 21.4375 31.078 21.8573 31.078 22.3752V26.1299C31.078 27.2318 30.1847 28.125 29.0828 28.125ZM0.922852 2.8125C0.922852 3.33025 1.3426 3.75 1.86035 3.75H21.453V2.8125C21.453 1.26163 22.7146 0 24.2655 0H3.73535C2.18204 0 0.922852 1.25919 0.922852 2.8125ZM18.6511 28.125C17.6214 28.125 16.634 27.7878 15.828 27.1686V31.0625C15.828 31.3875 15.9964 31.6887 16.2729 31.8599C16.5485 32.0311 16.8927 32.0439 17.1848 31.9011L18.6405 31.1733L20.0962 31.9011C20.3922 32.0481 20.7368 32.0286 21.008 31.8599C21.144 31.7759 21.2563 31.6586 21.3341 31.519C21.412 31.3795 21.4529 31.2223 21.453 31.0625V27.1874C20.6589 27.7942 19.6789 28.125 18.6511 28.125Z" fill="#8A1E3E"/>
</svg>
