<svg width="20" height="20" viewBox="0 0 20 20" fill="none" xmlns="http://www.w3.org/2000/svg">
<g clip-path="url(#clip0_1480_7946)">
<path d="M10 0C4.48578 0 0 4.48578 0 10C0 15.5142 4.48578 20 10 20C15.5142 20 20 15.5142 20 10C20 4.48578 15.5142 0 10 0Z" fill="#FFC107"/>
<path d="M10.8333 15.0003C10.8333 15.4605 10.4602 15.8336 10 15.8336C9.53983 15.8336 9.16675 15.4605 9.16675 15.0003C9.16675 14.5401 9.53983 14.167 10 14.167C10.4602 14.167 10.8333 14.5401 10.8333 15.0003Z" fill="#ECEFF1"/>
<path d="M11.3191 10.5347C11.0242 10.6705 10.8333 10.968 10.8333 11.2923V11.6664C10.8333 12.1263 10.4608 12.4997 10 12.4997C9.53918 12.4997 9.16672 12.1263 9.16672 11.6664V11.2923C9.16672 10.3197 9.73831 9.42813 10.6209 9.02057C11.47 8.62979 12.0833 7.59219 12.0833 7.08301C12.0833 5.93478 11.1491 4.99973 10 4.99973C8.85086 4.99973 7.91672 5.93478 7.91672 7.08301C7.91672 7.54306 7.5441 7.91644 7.08328 7.91644C6.62247 7.91644 6.25 7.54306 6.25 7.08301C6.25 5.01559 7.93243 3.33301 10 3.33301C12.0676 3.33301 13.75 5.01559 13.75 7.08301C13.75 8.20895 12.7733 9.86392 11.3191 10.5347Z" fill="#FAFAFA"/>
</g>
<defs>
<clipPath id="clip0_1480_7946">
<rect width="20" height="20" fill="white"/>
</clipPath>
</defs>
</svg>
