<svg width="47" height="48" viewBox="0 0 47 48" fill="none" xmlns="http://www.w3.org/2000/svg">
<path d="M23.3337 48C36.2206 48 46.6675 37.2548 46.6675 24C46.6675 10.7452 36.2206 0 23.3337 0C10.4469 0 0 10.7452 0 24C0 37.2548 10.4469 48 23.3337 48Z" fill="#FBD6E1"/>
<g clip-path="url(#clip0_164_10285)">
<path d="M32.7739 36.125C32.4192 35.5406 32.2031 34.8624 32.2031 34.1301V10.8375C32.2031 10.3567 31.8514 9.93464 31.3736 9.88107C30.8081 9.81764 30.3281 10.2596 30.3281 10.8125V12.6875C30.3281 13.2053 29.9084 13.625 29.3906 13.625H11.5781V31.4375C11.5781 34.0263 13.6768 36.125 16.2656 36.125H20.9531C20.9531 36.125 20.9588 31.2772 20.9695 31.2126C21.0873 28.732 23.142 26.75 25.6513 26.75C28.2359 26.75 30.3388 28.8528 30.3388 31.4375C30.3388 31.5388 30.3281 36.125 30.3281 36.125H32.7739ZM18.1512 28.625H16.2762C15.7581 28.625 15.3387 28.2057 15.3387 27.6875C15.3387 27.1693 15.7581 26.75 16.2762 26.75H18.1512C18.6694 26.75 19.0887 27.1693 19.0887 27.6875C19.0887 28.2057 18.6694 28.625 18.1512 28.625ZM27.5156 24.875H16.2899C15.8083 24.875 15.3859 24.5218 15.3339 24.0429C15.2724 23.4774 15.7127 23 16.2656 23H27.4914C27.973 23 28.3953 23.3533 28.4474 23.8321C28.5089 24.3976 28.0686 24.875 27.5156 24.875ZM27.5263 21.125H16.2762C15.7581 21.125 15.3387 20.7057 15.3387 20.1875C15.3387 19.6693 15.7581 19.25 16.2762 19.25H27.5263C28.0444 19.25 28.4638 19.6693 28.4638 20.1875C28.4638 20.7057 28.0444 21.125 27.5263 21.125ZM27.5263 17.375H16.2762C15.7581 17.375 15.3387 16.9557 15.3387 16.4375C15.3387 15.9193 15.7581 15.5 16.2762 15.5H27.5263C28.0444 15.5 28.4638 15.9193 28.4638 16.4375C28.4638 16.9557 28.0444 17.375 27.5263 17.375Z" fill="#8A1E3E"/>
<path d="M25.6511 34.25C24.952 34.25 24.2862 33.9903 23.7765 33.5187L23.7659 33.509L23.7551 33.4996C23.1727 32.9931 22.8387 32.2414 22.8387 31.4375C22.8387 29.8867 24.1004 28.625 25.6512 28.625C27.202 28.625 28.4637 29.8867 28.4637 31.4375C28.4637 32.2414 28.1222 32.9997 27.5267 33.5182L27.516 33.5276L27.5055 33.5372C27.0089 33.9969 26.3502 34.25 25.6511 34.25ZM36.0828 36.125H36.0731C34.9712 36.125 34.078 35.2318 34.078 34.1299V29.4375H37.1402C37.6581 29.4375 38.078 29.8573 38.078 30.3752V34.1299C38.078 35.2318 37.1847 36.125 36.0828 36.125ZM7.92285 10.8125C7.92285 11.3303 8.3426 11.75 8.86035 11.75H28.453V10.8125C28.453 9.26163 29.7146 8 31.2655 8H10.7354C9.18204 8 7.92285 9.25919 7.92285 10.8125ZM25.6511 36.125C24.6214 36.125 23.634 35.7877 22.828 35.1686V39.0625C22.828 39.3875 22.9964 39.6888 23.2729 39.8599C23.5485 40.0311 23.8927 40.0439 24.1848 39.9011L25.6405 39.1733L27.0962 39.9011C27.3922 40.0481 27.7368 40.0286 28.008 39.8599C28.144 39.7759 28.2563 39.6586 28.3341 39.519C28.412 39.3795 28.4529 39.2223 28.453 39.0625V35.1874C27.6589 35.7942 26.6789 36.125 25.6511 36.125Z" fill="#8A1E3E"/>
</g>
<defs>
<clipPath id="clip0_164_10285">
<rect width="32" height="32" fill="white" transform="translate(7 8)"/>
</clipPath>
</defs>
</svg>
