<svg width="8" height="8" viewBox="0 0 8 8" fill="none" xmlns="http://www.w3.org/2000/svg">
<path fill-rule="evenodd" clip-rule="evenodd" d="M2 0C1.86739 0 1.74021 0.0526784 1.64645 0.146447C1.55268 0.240215 1.5 0.367392 1.5 0.5V1H1C0.734784 1 0.48043 1.10536 0.292893 1.29289C0.105357 1.48043 0 1.73478 0 2V7C0 7.26522 0.105357 7.51957 0.292893 7.70711C0.48043 7.89464 0.734784 8 1 8H7C7.26522 8 7.51957 7.89464 7.70711 7.70711C7.89464 7.51957 8 7.26522 8 7V2C8 1.73478 7.89464 1.48043 7.70711 1.29289C7.51957 1.10536 7.26522 1 7 1H6.5V0.5C6.5 0.367392 6.44732 0.240215 6.35355 0.146447C6.25979 0.0526784 6.13261 0 6 0C5.86739 0 5.74022 0.0526784 5.64645 0.146447C5.55268 0.240215 5.5 0.367392 5.5 0.5V1H2.5V0.5C2.5 0.367392 2.44732 0.240215 2.35355 0.146447C2.25979 0.0526784 2.13261 0 2 0ZM2 2.5C1.86739 2.5 1.74021 2.55268 1.64645 2.64645C1.55268 2.74021 1.5 2.86739 1.5 3C1.5 3.13261 1.55268 3.25979 1.64645 3.35355C1.74021 3.44732 1.86739 3.5 2 3.5H6C6.13261 3.5 6.25979 3.44732 6.35355 3.35355C6.44732 3.25979 6.5 3.13261 6.5 3C6.5 2.86739 6.44732 2.74021 6.35355 2.64645C6.25979 2.55268 6.13261 2.5 6 2.5H2Z" fill="#39BCC0"/>
</svg>
