<svg width="17" height="17" viewBox="0 0 17 17" fill="none" xmlns="http://www.w3.org/2000/svg">
<path d="M16.9512 16.1476L12.4818 11.6782C13.5558 10.3889 14.0914 8.73506 13.9771 7.06087C13.8629 5.38668 13.1075 3.821 11.8683 2.68954C10.629 1.55808 9.00125 0.94794 7.3236 0.986059C5.64595 1.02418 4.04758 1.70762 2.861 2.8942C1.67441 4.08079 0.990976 5.67915 0.952856 7.3568C0.914737 9.03445 1.52487 10.6622 2.65634 11.9015C3.7878 13.1407 5.35348 13.8961 7.02767 14.0103C8.70185 14.1246 10.3556 13.589 11.645 12.515L16.1144 16.9844L16.9512 16.1476ZM2.15595 7.51543C2.15595 6.462 2.46833 5.43221 3.05359 4.55631C3.63885 3.68041 4.4707 2.99773 5.44395 2.59459C6.4172 2.19146 7.48814 2.08598 8.52134 2.2915C9.55453 2.49701 10.5036 3.00429 11.2485 3.74919C11.9934 4.49408 12.5007 5.44313 12.7062 6.47633C12.9117 7.50953 12.8062 8.58046 12.4031 9.55371C11.9999 10.527 11.3173 11.3588 10.4414 11.9441C9.56545 12.5293 8.53567 12.8417 7.48223 12.8417C6.0701 12.8401 4.71625 12.2785 3.71771 11.28C2.71918 10.2814 2.15752 8.92757 2.15595 7.51543Z" fill="#C9CCDE"/>
</svg>
