<svg width="21" height="20" viewBox="0 0 21 20" fill="none" xmlns="http://www.w3.org/2000/svg">
<path d="M10.5316 18.1251C5.82783 18.1251 1.9982 14.2917 1.9982 9.58341C1.9982 4.87508 5.82783 1.04175 10.5316 1.04175C15.2354 1.04175 19.065 4.87508 19.065 9.58341C19.065 14.2917 15.2354 18.1251 10.5316 18.1251ZM10.5316 2.29175C6.51051 2.29175 3.24699 5.56675 3.24699 9.58341C3.24699 13.6001 6.51051 16.8751 10.5316 16.8751C14.5527 16.8751 17.8162 13.6001 17.8162 9.58341C17.8162 5.56675 14.5527 2.29175 10.5316 2.29175Z" fill="#A2A8B4"/>
<path d="M19.2732 18.9583C19.115 18.9583 18.9568 18.9 18.8319 18.775L17.1669 17.1083C16.9254 16.8666 16.9254 16.4666 17.1669 16.225C17.4083 15.9833 17.8079 15.9833 18.0494 16.225L19.7144 17.8916C19.9558 18.1333 19.9558 18.5333 19.7144 18.775C19.5895 18.9 19.4313 18.9583 19.2732 18.9583Z" fill="#A2A8B4"/>
</svg>
