<svg width="24" height="24" viewBox="0 0 24 24" fill="none" xmlns="http://www.w3.org/2000/svg">
<path fill-rule="evenodd" clip-rule="evenodd" d="M20.2216 19.1429H19.4927V7C19.4927 6.81056 19.4159 6.62888 19.2792 6.49492C19.1425 6.36097 18.9572 6.28571 18.7638 6.28571H17.9974V15.7744H17V6.28571H16.5773V2.71429C16.5773 2.52485 16.5005 2.34316 16.3638 2.20921C16.2271 2.07525 16.0417 2 15.8484 2H4.18659C3.99328 2 3.80789 2.07525 3.67121 2.20921C3.53452 2.34316 3.45773 2.52485 3.45773 2.71429V19.1429H2.72886C2.53556 19.1429 2.35017 19.2181 2.21348 19.3521C2.07679 19.486 2 19.6677 2 19.8571C2 20.0466 2.07679 20.2283 2.21348 20.3622C2.35017 20.4962 2.53556 20.5714 2.72886 20.5714H20.2216C20.4149 20.5714 20.6003 20.4962 20.737 20.3622C20.8736 20.2283 20.9504 20.0466 20.9504 19.8571C20.9504 19.6677 20.8736 19.486 20.737 19.3521C20.6003 19.2181 20.4149 19.1429 20.2216 19.1429ZM10.7464 19.1429H9.28863V17.7143H10.7464V19.1429ZM8.45773 7.85714H7.72886C7.53556 7.85714 7.35017 7.78189 7.21348 7.64793C7.07679 7.51398 7 7.3323 7 7.14286C7 6.95342 7.07679 6.77174 7.21348 6.63778C7.35017 6.50383 7.53556 6.42857 7.72886 6.42857H8.45773V5.71429C8.45773 5.52485 8.53452 5.34316 8.67121 5.20921C8.80789 5.07525 8.99328 5 9.18659 5C9.3799 5 9.56528 5.07525 9.70197 5.20921C9.83866 5.34316 9.91545 5.52485 9.91545 5.71429V6.42857H10.6443C10.8376 6.42857 11.023 6.50383 11.1597 6.63778C11.2964 6.77174 11.3732 6.95342 11.3732 7.14286C11.3732 7.3323 11.2964 7.51398 11.1597 7.64793C11.023 7.78189 10.8376 7.85714 10.6443 7.85714H9.91545V8.57143C9.91545 8.76087 9.83866 8.94255 9.70197 9.0765C9.56528 9.21046 9.3799 9.28571 9.18659 9.28571C8.99328 9.28571 8.80789 9.21046 8.67121 9.0765C8.53452 8.94255 8.45773 8.76087 8.45773 8.57143V7.85714ZM6 11H7.45773V12.4286H6V11ZM6 14H7.45773V15.4286H6V14ZM9 11H10.4577V12.4286H9V11ZM10.4577 14H9V15.4286H10.4577V14ZM12 11H13.4577V12.4286H12V11ZM13.4577 14H12V15.4286H13.4577V14Z" fill="#BBC8C9"/>
</svg>
