<svg width="24" height="24" viewBox="0 0 24 24" fill="none" xmlns="http://www.w3.org/2000/svg">
<path d="M22.5357 13.25C22.5372 12.524 22.3533 11.8092 22.0007 11.1708C21.6481 10.5323 21.138 9.99044 20.517 9.59462C19.896 9.19881 19.1838 8.9616 18.4453 8.90463C17.7068 8.84765 16.9655 8.97272 16.2889 9.26843C15.6124 9.56414 15.0221 10.0211 14.5719 10.5976C14.1217 11.1742 13.8259 11.8519 13.7115 12.5692C13.597 13.2865 13.6676 14.0204 13.9167 14.7041C14.1658 15.3878 14.5856 15.9995 15.1378 16.4835V21.95L18.0969 20.5776L21.0561 21.95V16.4835C21.5212 16.0771 21.8934 15.5789 22.1484 15.0217C22.4034 14.4644 22.5354 13.8607 22.5357 13.25ZM19.5765 19.659L18.0969 18.9724L16.6173 19.659V17.3463C17.5735 17.6847 18.6204 17.6847 19.5765 17.3463V19.659ZM18.0969 16.15C17.5117 16.15 16.9395 15.9799 16.4529 15.6613C15.9663 15.3426 15.587 14.8897 15.363 14.3598C15.139 13.8299 15.0804 13.2468 15.1946 12.6842C15.3088 12.1217 15.5906 11.605 16.0045 11.1994C16.4183 10.7938 16.9456 10.5176 17.5196 10.4057C18.0937 10.2938 18.6886 10.3513 19.2294 10.5707C19.7701 10.7902 20.2323 11.1619 20.5574 11.6388C20.8826 12.1157 21.0561 12.6764 21.0561 13.25C21.0551 14.0188 20.7431 14.7559 20.1883 15.2996C19.6336 15.8432 18.8815 16.149 18.0969 16.15ZM7 10.35H12.1786V11.8H7V10.35ZM7 6H14.398V7.45H7V6Z" fill="#BBC8C9"/>
<path d="M4.47959 21.3C4.0873 21.2996 3.71119 21.1467 3.4338 20.8749C3.1564 20.603 3.00039 20.2344 3 19.85V2.45C3.00039 2.06555 3.1564 1.69696 3.4338 1.42512C3.71119 1.15327 4.0873 1.00038 4.47959 1H16.3163C16.7086 1.00038 17.0847 1.15327 17.3621 1.42512C17.6395 1.69696 17.7955 2.06555 17.7959 2.45V5.35H16.3163V2.45H4.47959V19.85H11.8776V21.3H4.47959Z" fill="#BBC8C9"/>
</svg>
