<svg width="24" height="21" viewBox="0 0 24 21" fill="none" xmlns="http://www.w3.org/2000/svg">
<path fill-rule="evenodd" clip-rule="evenodd" d="M6.66619 2C6.3568 2 6.06008 2.10919 5.84131 2.30354C5.62254 2.49789 5.49964 2.76149 5.49964 3.03635V4.0727H4.33309C3.71432 4.0727 3.12089 4.29108 2.68335 4.67978C2.24581 5.06849 2 5.59569 2 6.14541V16.5089C2 17.0586 2.24581 17.5858 2.68335 17.9745C3.12089 18.3633 3.71432 18.5816 4.33309 18.5816H18.3317C18.9504 18.5816 19.5439 18.3633 19.9814 17.9745C20.4189 17.5858 20.6648 17.0586 20.6648 16.5089V6.14541C20.6648 5.59569 20.4189 5.06849 19.9814 4.67978C19.5439 4.29108 18.9504 4.0727 18.3317 4.0727H17.1651V3.03635C17.1651 2.76149 17.0422 2.49789 16.8234 2.30354C16.6047 2.10919 16.308 2 15.9986 2C15.6892 2 15.3925 2.10919 15.1737 2.30354C14.9549 2.49789 14.832 2.76149 14.832 3.03635V4.0727H7.83273V3.03635C7.83273 2.76149 7.70983 2.49789 7.49106 2.30354C7.27229 2.10919 6.97558 2 6.66619 2ZM6.66619 7.18176C6.3568 7.18176 6.06008 7.29095 5.84131 7.4853C5.62254 7.67965 5.49964 7.94325 5.49964 8.21811C5.49964 8.49297 5.62254 8.75657 5.84131 8.95092C6.06008 9.14528 6.3568 9.25446 6.66619 9.25446H15.9986C16.308 9.25446 16.6047 9.14528 16.8234 8.95092C17.0422 8.75657 17.1651 8.49297 17.1651 8.21811C17.1651 7.94325 17.0422 7.67965 16.8234 7.4853C16.6047 7.29095 16.308 7.18176 15.9986 7.18176H6.66619Z" fill="white"/>
</svg>
