<svg width="24" height="24" viewBox="0 0 24 24" fill="none" xmlns="http://www.w3.org/2000/svg">
<g clip-path="url(#clip0_1202_1289)">
<path fill-rule="evenodd" clip-rule="evenodd" d="M11.4992 6.574L13.2405 4.83277L15.5747 2.49689C14.6058 2.39599 13.6272 2.54292 12.7306 2.92389C11.8341 3.30486 11.0491 3.90738 10.4492 4.6749C9.84936 5.44241 9.45435 6.34976 9.30126 7.31178C9.14817 8.27379 9.24202 9.25893 9.57401 10.1747L10.1095 11.6482L9.00072 12.7554L2.7635 18.9942C2.66524 19.0881 2.58673 19.2007 2.53259 19.3254C2.47844 19.45 2.44976 19.5843 2.44821 19.7202C2.44667 19.8561 2.4723 19.9909 2.5236 20.1168C2.57489 20.2426 2.65082 20.357 2.74693 20.4531C2.84303 20.5492 2.95737 20.6251 3.08323 20.6764C3.20909 20.7277 3.34393 20.7533 3.47983 20.7518C3.61574 20.7502 3.74996 20.7216 3.87462 20.6674C3.99928 20.6133 4.11187 20.5348 4.20576 20.4365L10.4446 14.1993L11.5518 13.0905L13.0253 13.6243C13.9411 13.9563 14.9262 14.0502 15.8882 13.8971C16.8502 13.744 17.7576 13.349 18.5251 12.7491C19.2926 12.1493 19.8951 11.3642 20.2761 10.4677C20.6571 9.57118 20.804 8.59255 20.7031 7.62367L18.3672 9.96119L16.626 11.6991L14.8848 9.9579L13.2421 8.31523L11.4976 6.574H11.4992ZM21.6394 3.40365C22.6533 4.80353 23.1984 6.48822 23.1967 8.21667C23.1972 9.53628 22.8797 10.8366 22.2712 12.0075C21.6627 13.1784 20.781 14.1855 19.7007 14.9434C18.6205 15.7013 17.3735 16.1878 16.0654 16.3617C14.7573 16.5355 13.4266 16.3916 12.1859 15.9422L5.94864 22.1794C5.62506 22.503 5.24092 22.7596 4.81814 22.9347C4.39537 23.1099 3.94224 23.2 3.48463 23.2C3.02702 23.2 2.5739 23.1099 2.15112 22.9347C1.72835 22.7596 1.3442 22.503 1.02062 22.1794C0.36713 21.5259 0 20.6395 0 19.7154C0 18.7912 0.36713 17.9049 1.02062 17.2514L7.25785 11.0141C6.65449 9.35083 6.60439 7.53714 7.11501 5.84306C7.62563 4.14898 8.66967 2.66508 10.0917 1.61226C11.5138 0.55943 13.2378 -0.00602964 15.0071 4.84919e-05C16.7765 0.00612662 18.4966 0.583417 19.9113 1.64599L18.1438 3.4135L16.7262 4.83113L14.9833 6.574L16.626 8.21667L18.3672 6.47544L19.7865 5.05617L21.554 3.28866L21.6394 3.40365Z" fill="#BBC8C9"/>
</g>
<defs>
<clipPath id="clip0_1202_1289">
<rect width="24" height="24" fill="white"/>
</clipPath>
</defs>
</svg>
