<svg width="22" height="22" viewBox="0 0 22 22" fill="none" xmlns="http://www.w3.org/2000/svg">
<path d="M22 11C22 17.0751 17.0751 22 11 22C4.92487 22 0 17.0751 0 11C0 4.92487 4.92487 0 11 0C17.0751 0 22 4.92487 22 11Z" fill="#F2F2F2"/>
<g clip-path="url(#clip0_1430_8417)">
<path d="M11.8317 11L15.8275 7.00423C16.0575 6.77424 16.0575 6.40249 15.8275 6.17249C15.5975 5.9425 15.2258 5.9425 14.9958 6.17249L11 10.1683L7.00423 6.17249C6.77424 5.9425 6.40249 5.9425 6.17249 6.17249C5.9425 6.40249 5.9425 6.77424 6.17249 7.00423L10.1683 11L6.17249 14.9958C5.9425 15.2257 5.9425 15.5975 6.17249 15.8275C6.2872 15.9422 6.43778 15.9998 6.58836 15.9998C6.73894 15.9998 6.88952 15.9422 7.00423 15.8275L11 11.8317L14.9958 15.8275C15.1105 15.9422 15.261 15.9998 15.4116 15.9998C15.5622 15.9998 15.7128 15.9422 15.8275 15.8275C16.0575 15.5975 16.0575 15.2257 15.8275 14.9958L11.8317 11Z" fill="#FF0000"/>
</g>
<defs>
<clipPath id="clip0_1430_8417">
<rect width="10" height="10" fill="white" transform="translate(6 6)"/>
</clipPath>
</defs>
</svg>
