<svg width="15" height="15" viewBox="0 0 15 15" fill="none" xmlns="http://www.w3.org/2000/svg">
<path fill-rule="evenodd" clip-rule="evenodd" d="M6.00863 13.7565C5.68514 13.6798 5.37109 13.5789 5.06834 13.4554C4.79457 13.3437 4.48171 13.4753 4.36994 13.7491C4.25834 14.0229 4.38983 14.3357 4.6636 14.4475C5.01709 14.5917 5.38411 14.7096 5.76212 14.7991C6.04977 14.8672 6.33863 14.6889 6.40669 14.401C6.47474 14.1134 6.29646 13.8245 6.00863 13.7565ZM3.38011 12.4397C3.12657 12.2284 2.88949 11.998 2.67126 11.7506C2.47566 11.5289 2.13674 11.5077 1.91509 11.7033C1.69343 11.899 1.67217 12.2378 1.86794 12.4594C2.12234 12.7478 2.39851 13.0164 2.69389 13.2626C2.92103 13.452 3.25909 13.4213 3.44851 13.1942C3.63777 12.9672 3.60709 12.6292 3.38011 12.4397ZM1.60823 10.0913C1.47606 9.79219 1.36617 9.48105 1.28046 9.15996C1.20434 8.87436 0.910515 8.7043 0.624743 8.78042C0.339143 8.8567 0.169086 9.15053 0.245372 9.43613C0.345315 9.81122 0.473715 10.1746 0.628172 10.5242C0.747486 10.7947 1.06411 10.9173 1.33463 10.7978C1.60497 10.6785 1.72771 10.3618 1.60823 10.0913ZM1.0708 7.20036C1.08623 6.86625 1.12703 6.53865 1.19166 6.21962C1.25029 5.9299 1.06257 5.64705 0.772858 5.58842C0.482972 5.52962 0.200115 5.71733 0.141486 6.00722C0.0662289 6.37922 0.0184003 6.76133 0.000571774 7.15116C-0.0129711 7.44653 0.215715 7.69733 0.511086 7.71087C0.806457 7.72442 1.05726 7.49573 1.0708 7.20036ZM1.87549 4.37316C2.0368 4.0843 2.21971 3.80916 2.42217 3.54979C2.60406 3.31682 2.56257 2.97979 2.32943 2.7979C2.09646 2.61602 1.75943 2.6575 1.57754 2.89065C1.34149 3.19287 1.12823 3.51379 0.94 3.85082C0.795829 4.10882 0.8884 4.43556 1.14657 4.57973C1.40474 4.7239 1.73131 4.63133 1.87549 4.37316ZM3.85754 2.19859C4.12823 2.01259 4.41383 1.84665 4.71229 1.70316C4.97869 1.57493 5.09097 1.25453 4.96291 0.988131C4.83469 0.721731 4.51429 0.609446 4.24789 0.737503C3.89971 0.904988 3.56646 1.09853 3.25069 1.31573C3.00691 1.48322 2.9452 1.81699 3.11269 2.06059C3.28017 2.30436 3.61394 2.36607 3.85754 2.19859Z" fill="white"/>
<path fill-rule="evenodd" clip-rule="evenodd" d="M7.4925 1.07143C11.0406 1.07143 13.9211 3.95194 13.9211 7.5C13.9211 11.0481 11.0406 13.9286 7.4925 13.9286C7.19679 13.9286 6.95679 14.1686 6.95679 14.4643C6.95679 14.76 7.19679 15 7.4925 15C11.6318 15 14.9925 11.6393 14.9925 7.5C14.9925 3.36069 11.6318 0 7.4925 0C7.19679 0 6.95679 0.24 6.95679 0.535714C6.95679 0.831429 7.19679 1.07143 7.4925 1.07143Z" fill="white"/>
<path fill-rule="evenodd" clip-rule="evenodd" d="M6.95679 4.50153V7.53205C6.95679 7.82776 7.19662 8.06776 7.4925 8.06776H10.439C10.7346 8.06776 10.9747 7.82759 10.9746 7.53205C10.9746 7.23633 10.7346 6.99633 10.4388 6.99633H8.02822V4.50153C8.02822 4.20582 7.78822 3.96582 7.4925 3.96582C7.19679 3.96582 6.95679 4.20582 6.95679 4.50153Z" fill="white"/>
<path fill-rule="evenodd" clip-rule="evenodd" d="M13.6533 8.0353H14.4568C14.7525 8.0353 14.9925 7.7953 14.9925 7.49958C14.9925 7.20387 14.7525 6.96387 14.4568 6.96387H13.6531C13.3576 6.96387 13.1174 7.20387 13.1174 7.49958C13.1176 7.7953 13.3576 8.0353 13.6533 8.0353Z" fill="white"/>
<path fill-rule="evenodd" clip-rule="evenodd" d="M7.49243 0.536133V1.33979V0.536133Z" fill="white"/>
<path d="M7.49243 0.536133V1.33979" stroke="white" stroke-miterlimit="1.5" stroke-linecap="round" stroke-linejoin="round"/>
<path fill-rule="evenodd" clip-rule="evenodd" d="M6.95679 13.6605V14.4642C6.95679 14.7599 7.19679 14.9999 7.4925 14.9999C7.78822 14.9999 8.02822 14.7599 8.02822 14.4642V13.6605C8.02822 13.365 7.78822 13.125 7.4925 13.125C7.19679 13.1248 6.95679 13.365 6.95679 13.6605Z" fill="white"/>
</svg>
