<svg width="15" height="14" viewBox="0 0 15 14" fill="none" xmlns="http://www.w3.org/2000/svg">
<path d="M13.2402 2.91699H2.68318C2.52763 2.91699 2.37845 2.97845 2.26846 3.08785C2.15847 3.19724 2.09668 3.34562 2.09668 3.50033C2.09668 3.65504 2.15847 3.80341 2.26846 3.9128C2.37845 4.0222 2.52763 4.08366 2.68318 4.08366H3.85619V11.0837C3.85612 11.3135 3.90158 11.5411 3.98998 11.7534C4.07838 11.9658 4.20799 12.1587 4.37139 12.3213C4.53478 12.4838 4.72878 12.6127 4.94228 12.7006C5.15579 12.7885 5.38462 12.8337 5.6157 12.8337H10.3077C10.5388 12.8337 10.7677 12.7885 10.9812 12.7006C11.1947 12.6127 11.3887 12.4838 11.5521 12.3213C11.7155 12.1588 11.8451 11.9658 11.9335 11.7535C12.0219 11.5411 12.0673 11.3135 12.0672 11.0837V4.08366H13.2402C13.3958 4.08366 13.545 4.0222 13.655 3.9128C13.765 3.80341 13.8268 3.65504 13.8268 3.50033C13.8268 3.34562 13.765 3.19724 13.655 3.08785C13.545 2.97845 13.3958 2.91699 13.2402 2.91699ZM10.8942 11.0837C10.894 11.2383 10.8322 11.3866 10.7222 11.4959C10.6123 11.6053 10.4632 11.6668 10.3077 11.667H5.6157C5.46022 11.6668 5.31116 11.6053 5.20122 11.4959C5.09128 11.3866 5.02942 11.2383 5.0292 11.0837V4.08366H10.8942V11.0837Z" fill="#F75151"/>
<path d="M6.78865 2.33366H9.13467C9.29022 2.33366 9.4394 2.2722 9.54939 2.1628C9.65938 2.05341 9.72117 1.90504 9.72117 1.75033C9.72117 1.59562 9.65938 1.44724 9.54939 1.33785C9.4394 1.22845 9.29022 1.16699 9.13467 1.16699H6.78865C6.6331 1.16699 6.48392 1.22845 6.37393 1.33785C6.26394 1.44724 6.20215 1.59562 6.20215 1.75033C6.20215 1.90504 6.26394 2.05341 6.37393 2.1628C6.48392 2.2722 6.6331 2.33366 6.78865 2.33366Z" fill="#F75151"/>
<path d="M7.37516 9.33301V6.41634C7.37516 6.26163 7.31336 6.11326 7.20337 6.00386C7.09338 5.89447 6.9442 5.83301 6.78865 5.83301C6.6331 5.83301 6.48392 5.89447 6.37393 6.00386C6.26394 6.11326 6.20215 6.26163 6.20215 6.41634V9.33301C6.20215 9.48772 6.26394 9.63609 6.37393 9.74549C6.48392 9.85488 6.6331 9.91634 6.78865 9.91634C6.9442 9.91634 7.09338 9.85488 7.20337 9.74549C7.31336 9.63609 7.37516 9.48772 7.37516 9.33301Z" fill="#F75151"/>
<path d="M9.72135 9.33301V6.41634C9.72135 6.26163 9.65955 6.11326 9.54956 6.00386C9.43957 5.89447 9.29039 5.83301 9.13484 5.83301C8.97929 5.83301 8.83011 5.89447 8.72012 6.00386C8.61013 6.11326 8.54834 6.26163 8.54834 6.41634V9.33301C8.54834 9.48772 8.61013 9.63609 8.72012 9.74549C8.83011 9.85488 8.97929 9.91634 9.13484 9.91634C9.29039 9.91634 9.43957 9.85488 9.54956 9.74549C9.65955 9.63609 9.72135 9.48772 9.72135 9.33301Z" fill="#F75151"/>
</svg>
