<svg width="14" height="8" viewBox="0 0 14 8" fill="none" xmlns="http://www.w3.org/2000/svg">
<path d="M1.84967 7.72988C1.62973 7.72988 1.40979 7.64885 1.23615 7.47521C0.90045 7.13952 0.90045 6.58388 1.23615 6.24818L4.94037 2.54392C5.12559 2.3587 5.36868 2.2661 5.63492 2.28925C5.88959 2.3124 6.12111 2.45131 6.27159 2.67125L7.53336 4.56968L11.6428 0.46027C11.9785 0.124571 12.5341 0.124571 12.8698 0.46027C13.2055 0.795969 13.2055 1.35161 12.8698 1.68731L8.00797 6.54915C7.82275 6.73436 7.57966 6.82697 7.31342 6.80382C7.05875 6.78066 6.82723 6.64176 6.67675 6.42181L5.41498 4.52338L2.46319 7.47521C2.28955 7.64885 2.06961 7.72988 1.84967 7.72988Z" fill="#6ABD8B"/>
<path d="M12.2664 4.25612C11.7917 4.25612 11.3982 3.86255 11.3982 3.38794V1.94096H9.95119C9.47659 1.94096 9.08301 1.54738 9.08301 1.07278C9.08301 0.598168 9.47659 0.20459 9.95119 0.20459H12.2664C12.741 0.20459 13.1345 0.598168 13.1345 1.07278V3.38794C13.1345 3.86255 12.741 4.25612 12.2664 4.25612Z" fill="#6ABD8B"/>
</svg>
