<svg width="180" height="159" viewBox="0 0 180 159" fill="none" xmlns="http://www.w3.org/2000/svg">
<rect x="0.5" y="0.5" width="178.739" height="158" rx="11.5" fill="white" stroke="#C1E3E4" stroke-dasharray="6 6"/>
<path d="M40.036 110.531C40.036 113.009 41.772 114.185 43.816 114.185C45.846 114.185 47.638 113.009 47.638 110.531V104.357H46.042V110.559C46.042 112.071 45.188 112.785 43.83 112.785C42.486 112.785 41.632 112.071 41.632 110.559V104.357H40.036V110.531ZM51.312 107.507V106.373H49.716V117.755H51.312V112.967C51.816 113.569 52.726 114.213 54 114.213C56.03 114.213 57.626 112.575 57.626 110.195C57.626 107.815 56.03 106.247 54 106.247C52.74 106.247 51.802 106.863 51.312 107.507ZM56.002 110.195C56.002 111.861 54.854 112.827 53.65 112.827C52.46 112.827 51.312 111.889 51.312 110.223C51.312 108.571 52.46 107.633 53.65 107.633C54.854 107.633 56.002 108.529 56.002 110.195ZM59.2043 114.087H60.8003V103.727H59.2043V114.087ZM70.2457 110.223C70.2457 107.801 68.5097 106.247 66.3117 106.247C64.1137 106.247 62.3777 107.801 62.3777 110.223C62.3777 112.645 64.0437 114.213 66.2417 114.213C68.4537 114.213 70.2457 112.645 70.2457 110.223ZM64.0017 110.223C64.0017 108.473 65.0797 107.633 66.2837 107.633C67.4737 107.633 68.6077 108.473 68.6077 110.223C68.6077 111.973 67.4317 112.827 66.2417 112.827C65.0377 112.827 64.0017 111.973 64.0017 110.223ZM71.2914 110.195C71.2914 112.575 72.9014 114.213 74.9034 114.213C76.1914 114.213 77.1154 113.597 77.6054 112.939V114.087H79.2154V106.373H77.6054V107.493C77.1294 106.863 76.2334 106.247 74.9314 106.247C72.9014 106.247 71.2914 107.815 71.2914 110.195ZM77.6054 110.223C77.6054 111.889 76.4714 112.827 75.2674 112.827C74.0774 112.827 72.9294 111.861 72.9294 110.195C72.9294 108.529 74.0774 107.633 75.2674 107.633C76.4714 107.633 77.6054 108.571 77.6054 110.223ZM80.7797 110.195C80.7797 112.575 82.3897 114.213 84.4197 114.213C85.6797 114.213 86.6037 113.625 87.0937 112.925V114.087H88.7037V103.727H87.0937V107.451C86.5057 106.723 85.4417 106.247 84.4337 106.247C82.3897 106.247 80.7797 107.815 80.7797 110.195ZM87.0937 110.223C87.0937 111.889 85.9597 112.827 84.7557 112.827C83.5657 112.827 82.4177 111.861 82.4177 110.195C82.4177 108.529 83.5657 107.633 84.7557 107.633C85.9597 107.633 87.0937 108.571 87.0937 110.223ZM94.4367 114.087H96.0327V106.373H94.4367V114.087ZM95.2487 105.351C95.8087 105.351 96.2567 104.903 96.2567 104.329C96.2567 103.755 95.8087 103.307 95.2487 103.307C94.6747 103.307 94.2267 103.755 94.2267 104.329C94.2267 104.903 94.6747 105.351 95.2487 105.351ZM109.062 114.087H110.644V109.537C110.644 107.381 109.272 106.247 107.466 106.247C106.346 106.247 105.254 106.835 104.778 107.773C104.246 106.765 103.224 106.247 102.006 106.247C101.082 106.247 100.242 106.625 99.7241 107.255V106.373H98.1281V114.087H99.7241V109.775C99.7241 108.361 100.494 107.633 101.67 107.633C102.832 107.633 103.602 108.361 103.602 109.775V114.087H105.184V109.775C105.184 108.361 105.954 107.633 107.13 107.633C108.292 107.633 109.062 108.361 109.062 109.775V114.087ZM112.143 110.195C112.143 112.575 113.753 114.213 115.755 114.213C117.043 114.213 117.967 113.597 118.457 112.939V114.087H120.067V106.373H118.457V107.493C117.981 106.863 117.085 106.247 115.783 106.247C113.753 106.247 112.143 107.815 112.143 110.195ZM118.457 110.223C118.457 111.889 117.323 112.827 116.119 112.827C114.929 112.827 113.781 111.861 113.781 110.195C113.781 108.529 114.929 107.633 116.119 107.633C117.323 107.633 118.457 108.571 118.457 110.223ZM121.631 110.195C121.631 112.575 123.241 114.213 125.271 114.213C126.531 114.213 127.455 113.583 127.945 112.925V114.213C127.945 115.753 127.021 116.509 125.789 116.509C124.683 116.509 123.829 115.963 123.591 115.165H122.009C122.205 116.873 123.731 117.895 125.789 117.895C128.197 117.895 129.555 116.313 129.555 114.213V106.373H127.945V107.493C127.469 106.835 126.531 106.247 125.271 106.247C123.241 106.247 121.631 107.815 121.631 110.195ZM127.945 110.223C127.945 111.889 126.811 112.827 125.607 112.827C124.417 112.827 123.269 111.861 123.269 110.195C123.269 108.529 124.417 107.633 125.607 107.633C126.811 107.633 127.945 108.571 127.945 110.223ZM134.9 107.591C136.09 107.591 137.028 108.347 137.056 109.537H132.786C132.954 108.319 133.822 107.591 134.9 107.591ZM138.512 111.791H136.79C136.496 112.393 135.95 112.869 134.97 112.869C133.794 112.869 132.884 112.099 132.772 110.825H138.666C138.708 110.559 138.722 110.307 138.722 110.041C138.722 107.773 137.168 106.247 134.97 106.247C132.688 106.247 131.12 107.801 131.12 110.223C131.12 112.645 132.758 114.213 134.97 114.213C136.86 114.213 138.078 113.135 138.512 111.791Z" fill="#39BCC0"/>
<path d="M80.7699 74.3153C78.4937 74.3153 76.3107 73.4504 74.7012 71.9109C73.0917 70.3714 72.1875 68.2833 72.1875 66.1061C72.1875 63.9289 73.0917 61.8408 74.7012 60.3013C76.3107 58.7618 78.4937 57.8969 80.7699 57.8969C81.3075 55.5019 82.8801 53.3973 85.1419 52.0459C86.2618 51.3768 87.5172 50.9127 88.8364 50.6802C90.1556 50.4478 91.5128 50.4514 92.8304 50.691C94.148 50.9305 95.4003 51.4013 96.5157 52.0765C97.6312 52.7516 98.588 53.6179 99.3315 54.6258C100.075 55.6337 100.591 56.7636 100.849 57.9509C101.107 59.1381 101.103 60.3596 100.837 61.5454H102.661C104.355 61.5454 105.979 62.2181 107.176 63.4155C108.373 64.6129 109.046 66.237 109.046 67.9304C109.046 69.6238 108.373 71.2478 107.176 72.4452C105.979 73.6426 104.355 74.3153 102.661 74.3153H100.837" stroke="#39BCC0" stroke-width="2.75" stroke-linecap="round" stroke-linejoin="round"/>
<path d="M84.4185 68.8425L89.8913 63.3696L95.3641 68.8425" stroke="#39BCC0" stroke-width="2.75" stroke-linecap="round" stroke-linejoin="round"/>
<path d="M89.8914 63.3696V79.7881" stroke="#39BCC0" stroke-width="2.75" stroke-linecap="round" stroke-linejoin="round"/>
</svg>
