<svg width="18" height="18" viewBox="0 0 18 18" fill="none" xmlns="http://www.w3.org/2000/svg">
<path d="M9 0C11.617 0 13.7461 2.1291 13.7461 4.74609C13.7461 7.36309 11.617 9.49219 9 9.49219C6.383 9.49219 4.25391 7.36309 4.25391 4.74609C4.25391 2.1291 6.383 0 9 0Z" fill="#AAAAAA"/>
<path d="M3.09495 12.5928C4.39432 11.2734 6.11687 10.5469 7.94531 10.5469H10.0547C11.8831 10.5469 13.6057 11.2734 14.9051 12.5928C16.1981 13.9057 16.9102 15.6387 16.9102 17.4727C16.9102 17.7639 16.674 18 16.3828 18H1.61719C1.32595 18 1.08984 17.7639 1.08984 17.4727C1.08984 15.6387 1.80193 13.9057 3.09495 12.5928Z" fill="#AAAAAA"/>
</svg>
