<svg width="46" height="48" viewBox="0 0 46 48" fill="none" xmlns="http://www.w3.org/2000/svg">
<path d="M23 48C35.7025 48 46 37.2548 46 24C46 10.7452 35.7025 0 23 0C10.2975 0 0 10.7452 0 24C0 37.2548 10.2975 48 23 48Z" fill="#EFF5FB"/>
<path d="M39 18.1875V16.5C39 14.567 37.433 13 35.5 13H10.5C8.567 13 7 14.567 7 16.5V18.1875C7 18.2704 7.03292 18.3499 7.09153 18.4085C7.15013 18.4671 7.22962 18.5 7.3125 18.5H38.6875C38.7704 18.5 38.8499 18.4671 38.9085 18.4085C38.9671 18.3499 39 18.2704 39 18.1875ZM7 20.8125V31.5C7 33.433 8.567 35 10.5 35H35.5C37.433 35 39 33.433 39 31.5V20.8125C39 20.7296 38.9671 20.6501 38.9085 20.5915C38.8499 20.5329 38.7704 20.5 38.6875 20.5H7.3125C7.22962 20.5 7.15013 20.5329 7.09153 20.5915C7.03292 20.6501 7 20.7296 7 20.8125ZM15 29C15 29.5523 14.5523 30 14 30H13C12.4477 30 12 29.5523 12 29V28C12 27.4477 12.4477 27 13 27H14C14.5523 27 15 27.4477 15 28V29Z" fill="#3BB3C1"/>
</svg>
