<svg width="20" height="20" viewBox="0 0 20 20" fill="none" xmlns="http://www.w3.org/2000/svg">
<path fill-rule="evenodd" clip-rule="evenodd" d="M8.88896 17.7776C8.88896 18.3664 9.12344 18.9322 9.54001 19.3487C9.95661 19.7653 10.5223 19.9998 11.1112 19.9998H17.7776C18.3665 19.9998 18.9322 19.7653 19.3488 19.3487C19.7654 18.9322 19.9998 18.3664 19.9998 17.7776V13.3331C19.9998 12.7443 19.7654 12.1785 19.3488 11.762C18.9322 11.3454 18.3665 11.1109 17.7776 11.1109H11.1112C10.5223 11.1109 9.95659 11.3454 9.54001 11.762C9.12341 12.1786 8.88896 12.7443 8.88896 13.3331V17.7776ZM4.44445 11.1111H2.2222C1.63314 11.1111 1.06763 11.3456 0.651051 11.7622C0.234231 12.1788 0 12.7445 0 13.3333V17.7778C0 18.3666 0.234259 18.9324 0.651051 19.349C1.06765 19.7656 1.63314 20 2.2222 20H4.44445C5.03328 20 5.5988 19.7655 6.0156 19.349C6.4322 18.9324 6.66665 18.3666 6.66665 17.7778V13.3333C6.66665 12.7445 6.43217 12.1788 6.0156 11.7622C5.59878 11.3456 5.03328 11.1111 4.44445 11.1111V11.1111ZM19.9999 2.22218C19.9999 1.63313 19.7655 1.06762 19.3489 0.651046C18.9323 0.234229 18.3666 0 17.7777 0H2.22225C1.6332 0 1.06768 0.234257 0.651107 0.651046C0.234287 1.06764 5.67082e-05 1.63313 5.67082e-05 2.22218V6.66667C5.67082e-05 7.25549 0.234315 7.821 0.651107 8.23781C1.06771 8.6544 1.6332 8.88885 2.22225 8.88885H17.7777C19.0056 8.88885 20 7.89443 20 6.66661L19.9999 2.22218Z" fill="white"/>
</svg>
