<svg width="25" height="25" viewBox="0 0 25 25" fill="none" xmlns="http://www.w3.org/2000/svg">
<path d="M12.4999 21.875V19.6615L18.0207 14.1406L20.2343 16.3542L14.7134 21.875H12.4999ZM3.12488 16.6667V14.5833H10.4165V16.6667H3.12488ZM20.9634 15.625L18.7499 13.4115L19.5051 12.6562C19.6961 12.4653 19.9391 12.3698 20.2343 12.3698C20.5294 12.3698 20.7724 12.4653 20.9634 12.6562L21.7186 13.4115C21.9096 13.6024 22.0051 13.8455 22.0051 14.1406C22.0051 14.4358 21.9096 14.6788 21.7186 14.8698L20.9634 15.625ZM3.12488 12.5V10.4167H14.5832V12.5H3.12488ZM3.12488 8.33333V6.25H14.5832V8.33333H3.12488Z" fill="#967501"/>
</svg>
